<?xml version="1.0" standalone="no"?>
<!DOCTYPE svg PUBLIC "-//W3C//DTD SVG 1.1//EN" "http://www.w3.org/Graphics/SVG/1.1/DTD/svg11.dtd" >
<svg>
<metadata>
Created by FontForge 20090622 at Wed Aug  8 10:37:14 2018
 By deploy user
&#194;&#169; 1988, 2002, 2006 Adobe Systems Incorporated. All rights reserved.
</metadata>
<defs>
<font id="OCRAStd" horiz-adv-x="720" >
  <font-face 
    font-family="OCR A Std"
    font-weight="400"
    font-stretch="normal"
    units-per-em="1000"
    panose-1="2 15 6 9 0 1 4 6 3 7"
    ascent="778"
    descent="-222"
    x-height="539"
    cap-height="778"
    bbox="-720 -239 1440 823"
    underline-thickness="100"
    underline-position="0"
    unicode-range="U+0020-U+FB02"
  />
<missing-glyph 
d="M160 95l170 255l-170 255v-510zM530 50l-170 255l-170 -255h340zM560 605l-170 -255l170 -255v510zM190 650l170 -255l170 255h-340zM110 0v700h500v-700h-500z" />
    <glyph glyph-name=".notdef" 
d="M160 95l170 255l-170 255v-510zM530 50l-170 255l-170 -255h340zM560 605l-170 -255l170 -255v510zM190 650l170 -255l170 255h-340zM110 0v700h500v-700h-500z" />
    <glyph glyph-name=".null" horiz-adv-x="0" 
 />
    <glyph glyph-name="nonmarkingreturn" 
 />
    <glyph glyph-name="space" unicode=" " 
 />
    <glyph glyph-name="numbersign" unicode="#" 
d="M313 470v-111h94v111h-94zM407 566v97q0 12 1.5 24t6 21t14 15t26.5 6q16 0 26 -6t14.5 -15t6 -21t1.5 -24v-97h30q26 0 46 -8.5t20 -39.5t-20 -39.5t-46 -8.5h-30v-111h30q26 0 46 -8.5t20 -39.5t-20 -39.5t-46 -8.5h-30v-97q0 -12 -1.5 -24t-6 -21t-14.5 -15t-26 -6
q-17 0 -26.5 6t-14 15t-6 21t-1.5 24v97h-94v-97q0 -12 -1.5 -24t-6 -21t-14.5 -15t-26 -6q-17 0 -26.5 6t-14 15t-6 21t-1.5 24v97h-30q-26 0 -46 8.5t-20 39.5t20 39.5t46 8.5h30v111h-30q-26 0 -46 8.5t-20 39.5t20 39.5t46 8.5h30v97q0 12 1.5 24t6 21t14 15t26.5 6
q16 0 26 -6t14.5 -15t6 -21t1.5 -24v-97h94z" />
    <glyph glyph-name="dollar" unicode="$" 
d="M310 728q0 24 11.5 37t38.5 13t38.5 -13t11.5 -37v-120h147q20 0 35 -11.5t15 -38.5t-15 -38.5t-35 -11.5h-344v-69h344q20 0 35 -15t15 -35v-169q0 -20 -15 -35t-35 -15h-147v-120q0 -24 -11.5 -37t-38.5 -13t-38.5 13t-11.5 37v120h-147q-20 0 -35 11.5t-15 38.5
t15 38.5t35 11.5h344v69h-344q-20 0 -35 15t-15 35v169q0 20 15 35t35 15h147v120z" />
    <glyph glyph-name="percent" unicode="%" 
d="M176 594q-17 0 -29 2.5t-23 16.5q-8 11 -9.5 21t-1.5 24v56q0 14 1.5 24t9.5 21q11 14 23 16.5t29 2.5h72q17 0 29 -2.5t23 -16.5q8 -11 9.5 -21t1.5 -24v-56q0 -14 -1.5 -24t-9.5 -21q-11 -14 -23 -16.5t-29 -2.5h-72zM472 0q-17 0 -29 2.5t-23 16.5q-8 11 -9.5 21
t-1.5 24v56q0 14 1.5 24t9.5 21q11 14 23 16.5t29 2.5h72q17 0 29 -2.5t23 -16.5q8 -11 9.5 -21t1.5 -24v-56q0 -14 -1.5 -24t-9.5 -21q-11 -14 -23 -16.5t-29 -2.5h-72zM197 93q-6 -6 -15 -9.5t-19.5 -4t-20 3t-16.5 10.5q-13 14 -12.5 35.5t12.5 35.5l397 518q11 14 34 14
t37 -14q13 -14 12.5 -35.5t-12.5 -35.5z" />
    <glyph glyph-name="ampersand" unicode="&#x26;" 
d="M290 264l-77 -68v-56v-16.5t4 -13t14 -8t30 -2.5h81l56 48zM408 495v35v28t-3.5 19.5t-12.5 11.5t-28 4h-111q-18 0 -26.5 -4.5t-11.5 -12.5t-2.5 -19.5t0.5 -26.5v-35l85 -94zM541 140l22 -23l13.5 -14t14 -17t11.5 -18t5 -18q0 -21 -13 -35.5t-35 -14.5q-14 0 -23.5 6
t-18.5 16l-51 53l-63 -53l-14.5 -11.5t-11 -6.5t-12.5 -3t-19 -1h-91q-29 0 -53.5 6.5t-46.5 26.5q-24 23 -33 49.5t-9 57.5v63q0 13 0.5 21t3 14.5t8 12.5t16.5 15l81 71l-94 101q-11 13 -13 21.5t-2 25.5v70q0 63 38.5 100.5t101.5 37.5h111q63 0 103.5 -36t40.5 -102v-70
q0 -14 -1.5 -22.5t-5 -15t-10.5 -12.5l-18 -15l-107 -92l107 -113l19 16l29.5 25t34.5 14q21 0 36 -15.5t15 -36.5q0 -14 -8 -24.5t-18 -18.5z" />
    <glyph glyph-name="quoteright" unicode="&#x2019;" 
d="M269 728q0 20 11.5 35t49.5 15h60q38 0 49.5 -15t11.5 -35q0 -8 -4.5 -24.5t-7.5 -28.5l-58 -234q-7 -26 -16.5 -42.5t-40.5 -16.5q-34 0 -44.5 18.5t-10.5 48.5v279z" />
    <glyph glyph-name="parenleft" unicode="(" 
d="M387 742q12 15 23 25.5t31 10.5t33 -15.5t13 -34.5q0 -13 -6.5 -23.5t-13.5 -19.5l-108 -142q-10 -13 -15 -21t-7.5 -15.5t-3 -16.5t-0.5 -25v-152q0 -16 0.5 -25.5t3 -17t7.5 -15t15 -20.5l105 -139l15.5 -22t7.5 -24q0 -21 -14 -35.5t-34 -14.5q-18 0 -28 9.5t-21 22.5
l-99 122q-17 20 -28 37.5t-17.5 36t-9.5 39t-3 46.5v152q0 26 3 46.5t9.5 38.5t17.5 36t28 38z" />
    <glyph glyph-name="parenright" unicode=")" 
d="M429 624q16 -20 27.5 -38t18 -36t9.5 -38.5t3 -46.5v-152q0 -26 -3 -46.5t-9.5 -39t-18 -36t-27.5 -37.5l-99 -122q-11 -13 -21 -22.5t-28 -9.5q-20 0 -34 14.5t-14 35.5q0 13 7.5 24l15.5 22l105 139q10 13 15 20.5t7.5 15t3 17t0.5 25.5v152q0 16 -0.5 25t-3 16.5
t-7.5 15.5t-15 21l-108 142q-7 9 -13.5 19.5t-6.5 23.5q0 19 13 34.5t33 15.5t31 -10.5t23 -25.5z" />
    <glyph glyph-name="asterisk" unicode="*" 
d="M284 388l-144 123q-10 8 -18.5 18.5t-8.5 24.5q0 21 14 37t36 16q12 0 22 -5.5t18 -13.5l107 -92v146q0 24 11.5 37t38.5 13t38.5 -13t11.5 -37v-146l107 92q8 8 18 13.5t22 5.5q22 0 36 -16t14 -37q0 -14 -8.5 -24.5t-18.5 -18.5l-144 -123l131 -112q13 -11 26.5 -24
t13.5 -31q0 -21 -14 -36.5t-36 -15.5q-16 0 -29.5 10.5t-24.5 20.5l-93 80v-144q0 -24 -11.5 -37t-38.5 -13t-38.5 13t-11.5 37v144l-93 -80q-11 -10 -24.5 -20.5t-29.5 -10.5q-22 0 -36 15.5t-14 36.5q0 18 13.5 31t26.5 24z" />
    <glyph glyph-name="plus" unicode="+" 
d="M310 588q0 24 11.5 37t38.5 13t38.5 -13t11.5 -37v-149h147q20 0 35 -11.5t15 -38.5t-15 -38.5t-35 -11.5h-147v-147q0 -24 -11.5 -37t-38.5 -13t-38.5 13t-11.5 37v147h-147q-20 0 -35 11.5t-15 38.5t15 38.5t35 11.5h147v149z" />
    <glyph glyph-name="comma" unicode="," 
d="M262 254q-20 0 -35 11.5t-15 38.5t15 38.5t35 11.5h186q14 0 23.5 -1.5t20.5 -12.5q12 -11 14 -22.5t2 -27.5v-240q0 -24 -11.5 -37t-38.5 -13t-38.5 13t-11.5 37v204h-146z" />
    <glyph glyph-name="hyphen" unicode="-" 
d="M477 449q31 0 45.5 -13.5t14.5 -47.5t-14.5 -47.5t-45.5 -13.5h-234q-31 0 -45.5 13.5t-14.5 47.5t14.5 47.5t45.5 13.5h234z" />
    <glyph glyph-name="period" unicode="." 
d="M324 128q-17 0 -29 2.5t-23 16.5q-8 11 -9.5 21t-1.5 24v56q0 14 1.5 24t9.5 21q11 14 23 16.5t29 2.5h72q17 0 29 -2.5t23 -16.5q8 -11 9.5 -21t1.5 -24v-56q0 -14 -1.5 -24t-9.5 -21q-11 -14 -23 -16.5t-29 -2.5h-72z" />
    <glyph glyph-name="slash" unicode="/" 
d="M212 35q-9 -16 -19.5 -25.5t-29.5 -9.5t-34.5 13.5t-15.5 33.5q0 14 7 27t15 25l374 641q9 15 19.5 26.5t29.5 11.5q20 0 34.5 -13.5t14.5 -33.5q0 -12 -3 -21.5t-8 -17.5z" />
    <glyph glyph-name="zero" unicode="0" 
d="M507 100v578h-294v-578h294zM507 778q42 0 71 -29t29 -71v-578q0 -42 -28.5 -71t-71.5 -29h-294q-43 0 -71.5 29t-28.5 71v578q0 42 29 71t71 29h294z" />
    <glyph glyph-name="one" unicode="1" 
d="M507 100v202q0 22 11 36t39 14t39 -14t11 -36v-252q0 -27 -15 -38.5t-35 -11.5h-394q-20 0 -35 11.5t-15 38.5t15 38.5t35 11.5h147v578h-147q-20 0 -35 11.5t-15 38.5t15 38.5t35 11.5h247v-678h97z" />
    <glyph glyph-name="two" unicode="2" 
d="M213 100h344q20 0 35 -11.5t15 -38.5t-15 -38.5t-35 -11.5h-444v326q0 113 113 113h281v239h-344q-20 0 -35 11.5t-15 38.5t15 38.5t35 11.5h332q25 0 43.5 -5.5t37.5 -22.5q21 -20 26 -41t5 -48v-205q0 -27 -5 -48t-26 -41q-19 -17 -37.5 -22.5t-43.5 -5.5h-282v-239z
" />
    <glyph glyph-name="three" unicode="3" 
d="M163 678q-20 0 -35 11.5t-15 38.5t15 38.5t35 11.5h344q43 0 71.5 -28.5t28.5 -71.5v-192q0 -30 -8 -53t-31 -44q23 -21 31 -44t8 -53v-192q0 -43 -28.5 -71.5t-71.5 -28.5h-344q-20 0 -35 11.5t-15 38.5t15 38.5t35 11.5h344v166q0 42 -14.5 57.5t-35.5 15.5h-196
q-20 0 -35 11.5t-15 38.5t15 38.5t35 11.5h196q21 0 35.5 15.5t14.5 57.5v166h-344z" />
    <glyph glyph-name="four" unicode="4" 
d="M457 354v289q0 19 10.5 34.5t39.5 15.5t39.5 -15.5t10.5 -34.5v-289q20 0 35 -11.5t15 -38.5t-15 -38.5t-35 -11.5v-204q0 -24 -11.5 -37t-38.5 -13t-38.5 13t-11.5 37v204h-294v474q0 19 10.5 34.5t39.5 15.5t39.5 -15.5t10.5 -34.5v-374h194z" />
    <glyph glyph-name="five" unicode="5" 
d="M312 439h184q24 0 43 -5.5t37 -22.5q21 -20 26 -39.5t5 -45.5v-214q0 -23 -4 -41t-20 -37q-19 -23 -39.5 -28.5t-47.5 -5.5h-222q-20 0 -33.5 5t-32.5 13l-38 17q-10 4 -20 8.5t-18.5 10.5t-13.5 15t-5 22q0 20 14 35t34 15q9 0 16.5 -2t15.5 -6l30 -13q11 -5 26 -12.5
t27 -7.5h231v239h-295v439h345q20 0 35 -11.5t15 -38.5t-15 -38.5t-35 -11.5h-245v-239z" />
    <glyph glyph-name="six" unicode="6" 
d="M213 254v-154h294v154h-294zM213 354h334q38 0 49 -16t11 -51v-224q0 -35 -15.5 -49t-49.5 -14h-364q-35 0 -50 14t-15 49v665q0 17 8.5 33.5t34.5 16.5h60q20 0 33.5 -15t13.5 -35q0 -23 -14 -36.5t-36 -13.5v-324z" />
    <glyph glyph-name="seven" unicode="7" 
d="M213 678q0 -17 -13 -33.5t-37 -16.5t-37 16.5t-13 33.5v50q0 17 13 33.5t37 16.5h444v-290q0 -13 -0.5 -21t-2.5 -14.5t-8 -12.5t-16 -15l-140 -121q-10 -9 -15.5 -14.5t-8.5 -11t-3.5 -13.5t-0.5 -21v-194q0 -24 -11.5 -37t-38.5 -13t-38.5 13t-11.5 37v241
q0 12 0.5 19.5t3 13.5t8 11.5t14.5 13.5l138 119q12 11 18.5 17.5t9.5 13t3 15.5v26v138h-294z" />
    <glyph glyph-name="eight" unicode="8" 
d="M507 100v239h-294v-239h294zM457 778q26 0 38 -15t12 -35v-289q23 0 41 -7.5t32 -20.5q27 -26 27 -73v-238q0 -46 -26.5 -73t-73.5 -27h-294q-47 0 -73.5 27t-26.5 73v238q0 47 27 73q14 13 32 20.5t41 7.5v289q0 20 12 35t38 15h194zM407 439v239h-94v-239h94z" />
    <glyph glyph-name="nine" unicode="9" 
d="M507 522v156h-294v-156h294zM507 422h-344q-21 0 -35.5 15t-14.5 35v256q0 20 14.5 35t35.5 15h394q21 0 35.5 -15t14.5 -35v-678q0 -20 -13.5 -35t-36.5 -15h-50q-23 0 -36.5 15t-13.5 35q0 23 14 36.5t36 13.5v322z" />
    <glyph glyph-name="colon" unicode=":" 
d="M324 467q-17 0 -29 2.5t-23 16.5q-8 11 -9.5 21t-1.5 24v56q0 14 1.5 24t9.5 21q11 14 23 16.5t29 2.5h72q17 0 29 -2.5t23 -16.5q8 -11 9.5 -21t1.5 -24v-56q0 -14 -1.5 -24t-9.5 -21q-11 -14 -23 -16.5t-29 -2.5h-72zM324 127q-17 0 -29 2.5t-23 16.5q-8 11 -9.5 21
t-1.5 24v56q0 14 1.5 24t9.5 21q11 14 23 16.5t29 2.5h72q17 0 29 -2.5t23 -16.5q8 -11 9.5 -21t1.5 -24v-56q0 -14 -1.5 -24t-9.5 -21q-11 -14 -23 -16.5t-29 -2.5h-72z" />
    <glyph glyph-name="semicolon" unicode=";" 
d="M274 509q-17 0 -29 2.5t-23 16.5q-8 11 -9.5 21t-1.5 24v56q0 14 1.5 24t9.5 21q11 14 23 16.5t29 2.5h72q17 0 29 -2.5t23 -16.5q8 -11 9.5 -21t1.5 -24v-56q0 -14 -1.5 -24t-9.5 -21q-11 -14 -23 -16.5t-29 -2.5h-72zM261 254q-20 0 -35 11.5t-15 38.5t15 38.5t35 11.5
h188q14 0 23.5 -1.5t20.5 -12.5q13 -11 14.5 -22.5t1.5 -27.5v-240q0 -24 -11.5 -37t-38.5 -13t-38.5 13t-11.5 37v204h-148z" />
    <glyph glyph-name="less" unicode="&#x3c;" 
d="M599 174q15 -10 23.5 -21t9.5 -30q0 -21 -15.5 -38t-36.5 -17q-13 0 -23.5 5.5t-19.5 11.5l-411 273q-17 11 -27 21.5t-10 32.5q-1 21 9.5 32t27.5 22l412 274q9 6 19.5 10.5t21.5 4.5q22 0 37 -16.5t16 -37.5q0 -20 -10.5 -31.5t-24.5 -21.5l-356 -236z" />
    <glyph glyph-name="equal" unicode="=" 
d="M163 465q-20 0 -35 11.5t-15 38.5t15 38.5t35 11.5h394q20 0 35 -11.5t15 -38.5t-15 -38.5t-35 -11.5h-394zM163 253q-20 0 -35 11.5t-15 38.5t15 38.5t35 11.5h394q20 0 35 -11.5t15 -38.5t-15 -38.5t-35 -11.5h-394z" />
    <glyph glyph-name="greater" unicode="&#x3e;" 
d="M480 412l-356 236q-14 10 -24.5 21.5t-10.5 31.5q1 21 16 37.5t37 16.5q11 0 21.5 -4.5t19.5 -10.5l412 -274q17 -11 27.5 -22t9.5 -32q0 -22 -10 -32.5t-27 -21.5l-411 -273q-9 -6 -19.5 -11.5t-23.5 -5.5q-21 0 -36.5 17t-15.5 38q1 19 9.5 30t23.5 21z" />
    <glyph glyph-name="question" unicode="?" 
d="M261 100q21 0 35.5 -15t14.5 -36q0 -20 -14.5 -34.5t-35.5 -14.5q-20 0 -35 14.5t-15 34.5t15 35.5t35 15.5zM507 620l-49 42l-253 -217q-9 -8 -19.5 -14t-22.5 -6q-22 0 -36 15.5t-14 36.5q0 18 13.5 31l25.5 24l265 226q9 8 18 14t23 6t22 -5.5t19 -14.5l82 -70
q10 -8 15 -14t7.5 -12t3 -14t0.5 -20v-55q0 -14 -1 -22t-4.5 -14t-9.5 -12t-16 -15l-265 -229v-61q0 -24 -11.5 -37t-38.5 -13t-38.5 13t-11.5 37v74q0 13 1 20.5t4.5 13.5t9.5 11l15 13l266 231v37z" />
    <glyph glyph-name="at" unicode="@" 
d="M312 384h-46q-20 0 -34.5 -13.5t-14.5 -56.5v-136q0 -12 1 -26.5t6 -27t15 -20.5t27 -8q20 0 29.5 10t13.5 23t3.5 25.5t-0.5 18.5v211zM121 318q0 33 9.5 62.5t28.5 51.5t46.5 35t63.5 13h68q21 0 34.5 -3t21.5 -10.5t11.5 -21t3.5 -34.5v-237q0 -12 1 -26t6 -25.5
t14.5 -19t26.5 -7.5q19 0 29 9t14 22t4 28.5v29.5v387q0 21 -0.5 39t-12.5 36q-15 23 -36.5 29t-47.5 6h-100q-25 0 -46.5 -4.5t-35.5 -29.5q-10 -18 -20.5 -34t-34.5 -16q-20 0 -34 12.5t-14 32.5q0 12 5.5 25.5t14 26.5t18.5 23.5t19 18.5q31 26 62 33.5t69 7.5h87
q26 0 43.5 -1.5t43.5 -12.5q59 -23 87.5 -66.5t28.5 -105.5v-420q0 -35 -3.5 -61.5t-26.5 -54.5q-20 -24 -49.5 -40t-61.5 -16q-26 0 -52.5 10t-45.5 30q-19 -18 -43.5 -29t-50.5 -11q-35 0 -62 13.5t-45.5 36.5t-28 53t-9.5 62v153z" />
    <glyph glyph-name="A" unicode="A" 
d="M361 541h-2l-78 -271h157zM309 727q6 20 16.5 35.5t34.5 15.5q25 0 36 -15.5t16 -35.5l193 -677q5 -18 -11 -34t-37 -16q-23 0 -36 16t-18 34l-37 120h-213l-38 -120q-5 -18 -18 -34t-36 -16q-21 0 -37 16t-11 34z" />
    <glyph glyph-name="B" unicode="B" 
d="M213 439h180q54 0 84 25.5t30 82.5q0 31 -5 55.5t-18 41.5t-35 25.5t-56 8.5h-180v-239zM213 100h180q54 0 84 25.5t30 82.5q0 31 -5 55.5t-18 41.5t-35 25.5t-56 8.5h-180v-239zM113 778h280q110 0 162 -62.5t52 -168.5q0 -44 -13 -83.5t-53 -74.5q21 -20 34 -40.5
t20 -42.5t9.5 -46t2.5 -52q0 -49 -15.5 -87.5t-44 -65.5t-67.5 -41t-87 -14h-280v778z" />
    <glyph glyph-name="C" unicode="C" 
d="M382 0q-57 0 -91.5 23t-58.5 72l-92 186q-13 26 -20 51t-7 54q0 33 6.5 57t21.5 54l92 185q26 52 61 74t93 22h170q8 0 17 -2.5t16.5 -8.5t12 -15.5t4.5 -23.5q0 -27 -16.5 -38.5t-33.5 -11.5h-167q-16 0 -26 -1t-17.5 -5.5t-13 -13t-12.5 -22.5l-87 -174
q-10 -20 -15.5 -36.5t-5.5 -39.5q0 -21 6 -36t15 -33l85 -173q7 -15 13.5 -24t14.5 -13.5t19 -5.5t28 -1h163q8 0 17 -2.5t16.5 -8.5t12 -15.5t4.5 -23.5q0 -27 -16.5 -38.5t-33.5 -11.5h-175z" />
    <glyph glyph-name="D" unicode="D" 
d="M311 100h19q16 0 26 1.5t17.5 6t13.5 12.5t13 22l88 178q8 17 13.5 31.5t5.5 33.5q0 26 -7 43t-18 39l-83 169q-8 16 -14.5 24.5t-14.5 12.5t-19 4.5t-28 0.5h-12v-578zM211 678h-37q-25 0 -43 10.5t-18 39.5q0 27 17.5 38.5t40.5 11.5h167q59 0 92 -24.5t59 -75.5
l88 -176q15 -31 22.5 -56t7.5 -60q0 -30 -7.5 -56.5t-21.5 -53.5l-91 -182q-26 -54 -62.5 -74t-95.5 -20h-166q-20 0 -35 11.5t-15 38.5t15 38.5t35 11.5h48v578z" />
    <glyph glyph-name="E" unicode="E" 
d="M557 100q20 0 35 -11.5t15 -38.5t-15 -38.5t-35 -11.5h-444v778h444q20 0 35 -11.5t15 -38.5t-15 -38.5t-35 -11.5h-344v-239h147q20 0 35 -11.5t15 -38.5t-15 -38.5t-35 -11.5h-147v-239h344z" />
    <glyph glyph-name="F" unicode="F" 
d="M113 778h444q20 0 35 -11.5t15 -38.5t-15 -38.5t-35 -11.5h-344v-154h246q20 0 35 -11.5t15 -38.5t-15 -38.5t-35 -11.5h-246v-374q0 -24 -11.5 -37t-38.5 -13t-38.5 13t-11.5 37v728z" />
    <glyph glyph-name="G" unicode="G" 
d="M410 254q-20 0 -35 11.5t-15 38.5t15 38.5t35 11.5h197v-197q0 -73 -44 -115t-116 -42h-172q-35 0 -62 8t-53 32q-30 27 -38.5 56t-8.5 67v250q0 24 3 43t9 35.5t16 33t24 34.5l118 151q30 38 60.5 53t79.5 15h134q20 0 35 -11.5t15 -38.5t-15 -38.5t-35 -11.5h-120
q-21 0 -32 -0.5t-18.5 -4.5t-14.5 -12t-19 -24l-109 -139q-23 -29 -27 -61t-4 -69v-196q0 -21 3 -34.5t10.5 -22t21 -12t34.5 -3.5h159q27 0 46.5 9.5t19.5 42.5v102h-97z" />
    <glyph glyph-name="H" unicode="H" 
d="M213 339v-289q0 -24 -11.5 -37t-38.5 -13t-38.5 13t-11.5 37v678q0 24 11.5 37t38.5 13t38.5 -13t11.5 -37v-289h294v289q0 24 11.5 37t38.5 13t38.5 -13t11.5 -37v-678q0 -24 -11.5 -37t-38.5 -13t-38.5 13t-11.5 37v289h-294z" />
    <glyph glyph-name="I" unicode="I" 
d="M410 100h147q20 0 35 -11.5t15 -38.5t-15 -38.5t-35 -11.5h-394q-20 0 -35 11.5t-15 38.5t15 38.5t35 11.5h147v578h-147q-20 0 -35 11.5t-15 38.5t15 38.5t35 11.5h394q20 0 35 -11.5t15 -38.5t-15 -38.5t-35 -11.5h-147v-578z" />
    <glyph glyph-name="J" unicode="J" 
d="M557 170q0 -29 -2.5 -49.5t-16.5 -46.5q-26 -43 -62.5 -58.5t-83.5 -15.5h-58q-42 0 -77.5 11t-62.5 47q-19 25 -25 48t-6 53v145q0 24 11.5 37t38.5 13t38.5 -13t11.5 -37v-130q0 -22 3 -36t10.5 -22.5t21.5 -12t36 -3.5h55q32 0 50 9t18 45v574q0 24 11.5 37t38.5 13
t38.5 -13t11.5 -37v-558z" />
    <glyph glyph-name="K" unicode="K" 
d="M113 728q0 24 11.5 37t38.5 13t38.5 -13t11.5 -37v-230l305 259q9 8 19 14t22 6q22 0 35 -15.5t13 -36.5q0 -13 -7 -23.5t-16 -18.5l-345 -294l343 -294q10 -8 17.5 -18.5t7.5 -24.5q0 -21 -13 -36.5t-35 -15.5q-16 0 -29 10.5l-25 19.5l-292 251v-231q0 -24 -11.5 -37
t-38.5 -13t-38.5 13t-11.5 37v678z" />
    <glyph glyph-name="L" unicode="L" 
d="M557 100q20 0 35 -11.5t15 -38.5t-15 -38.5t-35 -11.5h-444v728q0 24 11.5 37t38.5 13t38.5 -13t11.5 -37v-628h344z" />
    <glyph glyph-name="M" unicode="M" 
d="M482 778h125v-728q0 -24 -11.5 -37t-38.5 -13t-38.5 13t-11.5 37v590h-2l-95 -141v-16q0 -23 -10.5 -41.5t-39.5 -18.5q-27 0 -38.5 18.5t-11.5 41.5v16l-95 141h-2v-590q0 -24 -11.5 -37t-38.5 -13t-38.5 13t-11.5 37v728h125l122 -176z" />
    <glyph glyph-name="N" unicode="N" 
d="M508 727q0 24 11.5 37t38.5 13t38.5 -13t11.5 -37v-728h-132l-261 600v1h-2v-550q0 -24 -11.5 -37t-38.5 -13t-38.5 13t-11.5 37v728h132l261 -607h-1h2z" />
    <glyph glyph-name="O" unicode="O" 
d="M394 648q-6 12 -12 21t-22 9t-22 -9t-12 -21l-90 -181q-11 -22 -17 -39t-6 -42q0 -20 4.5 -34.5t12.5 -31.5l96 -190q5 -11 12 -20.5t22 -9.5t22 9.5t12 20.5l96 190q8 17 12.5 31.5t4.5 34.5q0 25 -6 42t-17 39zM581 497q14 -29 20 -54t6 -57q0 -36 -9 -62t-24 -57
l-92 -184q-18 -36 -48 -59.5t-74 -23.5t-74 23.5t-48 59.5l-92 184q-15 31 -24 57t-9 62q0 32 6 57t20 54l100 199q18 35 48.5 58.5t72.5 23.5t72.5 -23.5t48.5 -58.5z" />
    <glyph glyph-name="P" unicode="P" 
d="M213 394h222q22 0 36 3t22 11.5t11 22.5t3 35v140q0 21 -3 35t-11 22.5t-22 11.5t-36 3h-222v-284zM213 50q0 -24 -11.5 -37t-38.5 -13t-38.5 13t-11.5 37v728h332q35 0 61.5 -7.5t53.5 -33.5q32 -30 39.5 -60.5t7.5 -70.5v-136q0 -38 -6.5 -67.5t-34.5 -60.5
q-29 -33 -61 -40.5t-73 -7.5h-219v-244z" />
    <glyph glyph-name="Q" unicode="Q" 
d="M431 258l23 19q17 14 27.5 25t16 23t7.5 26.5t2 37.5v249q0 12 -2 26t-18 14q-9 0 -15 -6t-13 -11l-201 -174q-13 -11 -21.5 -20.5t-14 -20t-7.5 -23t-2 -29.5v-259q0 -12 2.5 -23.5t19.5 -11.5q8 0 16 5t14 10l86 75l-26 66q-5 11 -9.5 23.5t-4.5 23.5q0 20 15 34t35 14
q15 0 24 -6t15 -15t10 -20.5t9 -22.5zM390 91l-66 -56q-21 -18 -41 -26.5t-49 -8.5q-53 0 -88 38q-21 23 -27 45.5t-6 52.5v262q0 55 19.5 92.5t60.5 72.5l204 174q20 17 39 29t46 12q28 0 51.5 -10t39.5 -27.5t25 -41t9 -51.5v-265q0 -29 -4 -52.5t-13.5 -43.5t-24.5 -38.5
t-37 -37.5l-59 -51l25 -60h59q23 0 38.5 -13t15.5 -37q0 -16 -5.5 -25.5t-14.5 -15t-21 -7.5t-25 -2h-115z" />
    <glyph glyph-name="R" unicode="R" 
d="M213 522h222q10 0 23 1t23.5 5t18 12.5t7.5 23.5v69q0 15 -7 24t-17.5 13.5t-23 6t-23.5 1.5h-223v-156zM213 50q0 -24 -11.5 -37t-38.5 -13t-38.5 13t-11.5 37v728h336q30 0 58 -10t50.5 -29t36 -46t13.5 -60v-69q0 -35 -13.5 -61.5t-35.5 -44.5t-50.5 -27t-58.5 -9h-92
l225 -322q8 -11 16.5 -25t8.5 -28q0 -21 -15 -34t-36 -13q-15 0 -25.5 8t-18.5 20l-276 394h-23v-372z" />
    <glyph glyph-name="S" unicode="S" 
d="M572 196q15 -20 25 -38.5t10 -44.5q0 -28 -10 -49t-27 -35.5t-40 -21.5t-49 -7h-220q-29 0 -53.5 6.5t-47.5 25.5q-20 17 -33.5 42t-13.5 51q0 24 13.5 42t39.5 18q22 0 34.5 -15.5t12.5 -35.5q0 -23 11.5 -28.5t32.5 -5.5h217h8.5t11 0.5t9.5 3t4 8.5t-7.5 15t-10.5 14
l-343 441q-16 20 -24.5 38t-8.5 44q0 62 53 96q21 14 40 16t43 2h212q29 0 53 -7t46 -26q20 -17 33.5 -43t13.5 -52q0 -24 -12.5 -41t-39.5 -17q-23 0 -35.5 13t-12.5 34q0 26 -12.5 32.5t-35.5 6.5h-212h-10t-11 -1t-9 -4t-4 -9q0 -7 6 -14.5t9 -12.5z" />
    <glyph glyph-name="T" unicode="T" 
d="M213 678v-36q0 -24 -11.5 -37t-38.5 -13t-38.5 13t-11.5 37v136h494v-136q0 -24 -11.5 -37t-38.5 -13t-38.5 13t-11.5 37v36h-97v-628q0 -24 -11.5 -37t-38.5 -13t-38.5 13t-11.5 37v628h-97z" />
    <glyph glyph-name="U" unicode="U" 
d="M275 0q-38 0 -68 11t-56 40q-25 28 -31.5 56t-6.5 63v558q0 24 11.5 37t38.5 13t38.5 -13t11.5 -37v-558q0 -42 14 -56t48 -14h170q34 0 48 14t14 56v558q0 24 11.5 37t38.5 13t38.5 -13t11.5 -37v-558q0 -35 -6.5 -63t-31.5 -56q-26 -29 -56 -40t-68 -11h-170z" />
    <glyph glyph-name="V" unicode="V" 
d="M507 568v160q0 24 11.5 37t38.5 13t38.5 -13t11.5 -37v-158q0 -10 -1 -20t-5 -19l-191 -487q-8 -19 -17.5 -31.5t-32.5 -12.5t-32.5 12.5t-17.5 31.5l-191 487q-4 9 -5 19t-1 20v158q0 24 11.5 37t38.5 13t38.5 -13t11.5 -37v-160l147 -382z" />
    <glyph glyph-name="W" unicode="W" 
d="M422 0q-26 0 -41 8t-20 35h-2q-5 -27 -20 -35t-41 -8h-75q-13 0 -22 1.5t-15.5 5.5t-12 11t-11.5 18l-35 61q-10 16 -12 23.5t-2 27.5v580q0 24 11.5 37t38.5 13t38.5 -13t11.5 -37v-580l27 -48h43l27 48v315q0 23 11.5 41t38.5 18t38.5 -18t11.5 -41v-315l27 -48h43
l27 48v580q0 24 11.5 37t38.5 13t38.5 -13t11.5 -37v-580q0 -20 -2 -27.5t-12 -23.5l-35 -61q-6 -11 -11.5 -18t-12 -11t-15.5 -5.5t-22 -1.5h-75z" />
    <glyph glyph-name="X" unicode="X" 
d="M303 389l-178 306q-5 8 -8.5 16.5t-3.5 19.5q0 20 15 33.5t34 13.5q25 0 36 -15.5t22 -33.5l140 -239l140 239q11 18 22 33.5t36 15.5q19 0 34 -13.5t15 -33.5q0 -11 -3.5 -19.5t-8.5 -16.5l-178 -306l178 -306q5 -8 8.5 -16.5t3.5 -19.5q0 -20 -15 -33.5t-34 -13.5
q-25 0 -36 15.5t-22 33.5l-140 239l-140 -239q-11 -18 -22 -33.5t-36 -15.5q-19 0 -34 13.5t-15 33.5q0 11 3.5 19.5t8.5 16.5z" />
    <glyph glyph-name="Y" unicode="Y" 
d="M410 50q0 -24 -11.5 -37t-38.5 -13t-38.5 13t-11.5 37v320l-197 256v102q0 24 11.5 37t38.5 13t38.5 -13t11.5 -37v-68l147 -191l147 191v68q0 24 11.5 37t38.5 13t38.5 -13t11.5 -37v-102l-197 -256v-320z" />
    <glyph glyph-name="Z" unicode="Z" 
d="M607 713l-359 -613h309q20 0 35 -11.5t15 -38.5t-15 -38.5t-35 -11.5h-444v63l358 615h-308q-20 0 -35 11.5t-15 38.5t15 38.5t35 11.5h444v-65z" />
    <glyph glyph-name="bracketleft" unicode="[" 
d="M265 100v578h-52v-578h52zM545 100q24 0 43 -11t19 -39q0 -27 -18 -38.5t-42 -11.5h-363q-21 0 -34.5 2.5t-21.5 9.5t-11.5 20.5t-3.5 34.5v640q0 20 2.5 33.5t9.5 22t20.5 12t34.5 3.5h365q24 0 43 -11t19 -39q0 -27 -18 -38.5t-42 -11.5h-182v-578h180z" />
    <glyph glyph-name="backslash" unicode="\" 
d="M125 692q-5 8 -8.5 17t-3.5 19q0 20 15 35t35 15q19 0 29.5 -11.5t19.5 -26.5l374 -641q8 -12 14.5 -25t6.5 -27q0 -20 -15 -33.5t-34 -13.5t-29.5 9.5t-19.5 25.5z" />
    <glyph glyph-name="bracketright" unicode="]" 
d="M507 100v578h-52v-578h52zM355 100v578h-182q-24 0 -42 11.5t-18 38.5q0 28 19 39t43 11h365q21 0 34.5 -3.5t20.5 -12t9.5 -22t2.5 -33.5v-640q0 -21 -3.5 -34.5t-11.5 -20.5t-21.5 -9.5t-34.5 -2.5h-363q-24 0 -42 11.5t-18 38.5q0 28 19 39t43 11h180z" />
    <glyph glyph-name="asciicircum" unicode="^" 
d="M219 195q-10 -14 -19.5 -23.5t-29.5 -9.5q-17 0 -30 12.5t-13 30.5q0 13 5.5 24.5t11.5 22.5l163 310q9 18 19.5 32t33.5 14q24 0 34 -14t20 -32l163 -310q6 -11 11 -22.5t5 -24.5q0 -18 -13 -30.5t-30 -12.5q-19 0 -28.5 9.5t-19.5 23.5l-142 207z" />
    <glyph glyph-name="underscore" unicode="_" 
d="M720 -59v-100h-720v100h720z" />
    <glyph glyph-name="quoteleft" unicode="&#x2018;" 
d="M451 432q0 -20 -11.5 -35t-49.5 -15h-60q-38 0 -49.5 15t-11.5 35q0 8 4.5 24.5t7.5 28.5l58 234q7 26 16.5 42.5t40.5 16.5q34 0 44.5 -18.5t10.5 -48.5v-279z" />
    <glyph glyph-name="a" unicode="a" 
d="M285 241q-10 0 -21 -1.5t-20.5 -6t-16 -13t-6.5 -21.5v-64q0 -12 6.5 -19.5t16 -12t20 -6t19.5 -1.5h106l106 55v21q0 40 -14 54.5t-54 14.5h-142zM286 443q-11 0 -22.5 1.5t-21 6.5t-16 14.5t-6.5 25.5q0 15 6 24.5t15 15t21 7t24 1.5h132q37 0 66 -7.5t58 -35.5
q14 -14 22 -26.5t12.5 -26t6.5 -28.5t2 -33l10 -326q1 -21 -10 -38.5t-35 -17.5q-19 0 -34.5 14t-14.5 34l-66 -34l-16 -8t-12 -4.5t-12.5 -1.5h-18.5h-92q-32 0 -57.5 6t-51.5 28q-30 25 -40 52.5t-10 65.5v42q0 35 10 59t37 48q25 22 52.5 29t59.5 7h206v22
q0 27 -3.5 43.5t-13 25.5t-26 12t-42.5 3h-119z" />
    <glyph glyph-name="b" unicode="b" 
d="M221 231q0 -23 5 -35.5t24 -28.5l55 -47q9 -8 19 -16t18 -8h73q19 0 30 9l42 35q8 7 10 22t2 29v170q0 30 -13 40l-44 34q-10 8 -23 8h-67q-10 0 -21 -4.5t-19 -12.5l-62 -54q-12 -10 -20.5 -22.5t-8.5 -34.5v-84zM221 469l17 17q24 24 43 38.5t52 14.5h106q19 0 36 -9.5
t35 -24.5l33 -28q29 -25 40.5 -49t11.5 -62v-193q0 -38 -11.5 -62t-40.5 -49l-33 -28q-17 -14 -37 -24t-38 -10h-99q-29 0 -51 15t-42 34l-22 21v-6q0 -23 -9.5 -43.5t-38.5 -20.5q-15 0 -24.5 6t-15 15.5t-7 21.5t-1.5 24v604q0 12 1.5 24t7 21.5t15 15t24.5 5.5t24.5 -5.5
t15 -15t7 -21.5t1.5 -24v-202z" />
    <glyph glyph-name="c" unicode="c" 
d="M125 316q0 22 2.5 39t9 31.5t17.5 28t28 27.5l71 59q17 14 30.5 21.5t27.5 11.5t29.5 4.5t36.5 0.5h152q12 0 24 -1.5t21 -7t15 -15t6 -24.5q0 -16 -6.5 -25.5t-16 -14.5t-21.5 -6.5t-22 -1.5h-169q-14 0 -28 -6.5t-27 -17.5l-58 -49q-11 -9 -18.5 -18t-7.5 -23v-119
q0 -14 7.5 -23t18.5 -18l58 -49q13 -11 27 -17.5t28 -6.5h169q10 0 22 -1.5t21.5 -6.5t16 -14.5t6.5 -25.5q0 -15 -6 -24.5t-15 -15t-21 -7t-24 -1.5h-152q-21 0 -36.5 0.5t-29.5 4.5t-27.5 11.5t-30.5 21.5l-71 59q-17 14 -28 27.5t-17.5 28t-9 31.5t-2.5 39v93z" />
    <glyph glyph-name="d" unicode="d" 
d="M221 211q0 -20 2 -42t13 -31l29 -23q9 -8 18 -13.5t18 -5.5h68q20 0 47 24l55 47q11 9 19.5 18.5t8.5 23.5v121q0 14 -8.5 23.5t-19.5 18.5l-55 47q-27 24 -47 24h-68q-9 0 -18 -5.5t-18 -13.5l-29 -23q-11 -9 -13 -31t-2 -42v-117zM388 539q25 0 47 -13.5t48 -39.5
l16 -17v202q0 12 1.5 24t7 21.5t15 15t24.5 5.5t24.5 -5.5t15 -15t7 -21.5t1.5 -24v-604q0 -12 -1.5 -24t-7 -21.5t-15 -15.5t-24.5 -6q-29 0 -38.5 20t-9.5 44v6l-21 -21q-23 -21 -46.5 -35t-45.5 -14h-93q-24 0 -47.5 12.5t-34.5 21.5l-33 28q-30 25 -41.5 49t-11.5 62
v193q0 19 2.5 34t9 28t16.5 24.5t25 24.5l33 28q23 20 42.5 27t49.5 7h85z" />
    <glyph glyph-name="e" unicode="e" 
d="M221 296h278v58q0 14 -1 25t-11 20l-37 32q-9 8 -22 10t-24 2h-81q-14 0 -25.5 -1.5t-23.5 -9.5l-33 -24q-9 -7 -14.5 -15t-5.5 -29v-68zM301 0q-15 0 -26 0.5t-20.5 3t-19 7.5t-20.5 15l-41 36q-14 13 -23.5 24t-15 23t-8 26.5t-2.5 34.5v185q0 19 1.5 34.5t7 29
t14.5 26t24 25.5l34 29q17 15 30 23t25 11.5t24 4.5t27 1h88q18 0 31.5 -1.5t25.5 -5t23.5 -10.5t25.5 -18l39 -31q33 -26 41.5 -55.5t8.5 -69.5v-77q0 -21 -2.5 -34.5t-9.5 -21.5t-20 -11.5t-34 -3.5h-308v-32q0 -7 4.5 -15t9.5 -13l24 -26q10 -11 25 -14.5t39 -3.5h206
q12 0 24 -1.5t21 -7t15 -15t6 -24.5q0 -16 -6.5 -25.5t-16 -14.5t-21.5 -6.5t-22 -1.5h-228z" />
    <glyph glyph-name="f" unicode="f" 
d="M266 443h-27q-11 0 -22.5 1.5t-21 6.5t-16 14.5t-6.5 25.5q0 15 6 24.5t15 15t21 7t24 1.5h27v13q0 41 7 73t39 64q34 33 69 40.5t79 7.5h65q12 0 24.5 -1t22.5 -6t16.5 -14.5t6.5 -26.5q0 -15 -5.5 -24.5t-15 -15t-21.5 -7t-24 -1.5h-75q-24 0 -41.5 -3t-29 -12
t-16.5 -25.5t-5 -42.5v-19h85q12 0 24 -1.5t21 -7t15 -15t6 -24.5q0 -16 -6.5 -25.5t-16 -14.5t-21.5 -6.5t-22 -1.5h-85v-377q0 -12 -1.5 -24t-7 -21.5t-15 -15t-24.5 -5.5t-24.5 5.5t-15 15t-7 21.5t-1.5 24v377z" />
    <glyph glyph-name="g" unicode="g" 
d="M221 228q0 -15 2 -29t10 -21l40 -32q10 -9 28 -9h70q9 0 19.5 7t24.5 18l74 61q5 5 7.5 13.5t2.5 18.5v70q0 10 -2.5 18.5t-7.5 13.5l-74 61q-14 11 -24.5 18t-19.5 7h-70q-18 0 -28 -9l-40 -32q-8 -7 -10 -21t-2 -29v-124zM125 360q0 34 9 61.5t24 39.5l70 55
q15 12 28 17.5t32 5.5h93q20 0 43 -13t51 -35l24 -19v11q0 23 12 39.5t37 16.5q16 0 25 -6t14 -15.5t6.5 -21.5t1.5 -24v-469q0 -33 -1.5 -54t-7 -35.5t-14.5 -25.5t-24 -24l-32 -27q-16 -13 -29 -21t-26.5 -12.5t-29 -6t-35.5 -1.5h-159q-11 0 -22.5 1.5t-21 6.5t-16 14.5
t-6.5 25.5q0 15 6 24.5t15 15t21 7t24 1.5h176q15 0 26 6t22 16l24 22q14 14 14 40v132l-20 -20q-17 -17 -38 -32t-41 -15h-113q-15 0 -32.5 4.5t-39.5 24.5l-60 54q-21 20 -25.5 40.5t-4.5 49.5v146z" />
    <glyph glyph-name="h" unicode="h" 
d="M393 443q-15 0 -30 -9l-142 -89v-279q0 -12 -1.5 -24t-7 -21.5t-15 -15t-24.5 -5.5t-24.5 5.5t-15 15t-7 21.5t-1.5 24v605q0 12 1.5 24t7 21.5t15 15t24.5 5.5t24.5 -5.5t15 -15t7 -21.5t1.5 -24v-215l78 51q19 12 40.5 22t45.5 10h64q14 0 38.5 -4.5t54.5 -30.5
q16 -14 24.5 -28.5t12.5 -30.5t4.5 -34t1.5 -37l10 -302q0 -13 -1 -25.5t-6 -23t-14.5 -17t-25.5 -6.5q-15 0 -24 5.5t-14.5 15t-7.5 21t-2 23.5l-10 296q-1 17 -1.5 32t-5.5 26t-15.5 17.5t-30.5 6.5h-44z" />
    <glyph glyph-name="i" unicode="i" 
d="M265 733q0 26 12.5 35.5t32.5 9.5h55q20 0 32.5 -9.5t12.5 -35.5v-46q0 -26 -12.5 -35.5t-32.5 -9.5h-55q-20 0 -32.5 9.5t-12.5 35.5v46zM410 96h72q12 0 24 -1.5t21 -7t15 -15t6 -24.5q0 -16 -6.5 -25.5t-16 -14.5t-21.5 -6.5t-22 -1.5h-244q-11 0 -22.5 1.5t-21 6.5
t-16 14.5t-6.5 25.5q0 15 6 24.5t15 15t21 7t24 1.5h76v347h-76q-11 0 -22.5 1.5t-21 6.5t-16 14.5t-6.5 25.5q0 15 6 24.5t15 15t21 7t24 1.5h101q21 0 34.5 -2.5t21.5 -9.5t11.5 -20.5t3.5 -34.5v-376z" />
    <glyph glyph-name="j" unicode="j" 
d="M403 733q0 26 12.5 35.5t32.5 9.5h55q20 0 32.5 -9.5t12.5 -35.5v-46q0 -26 -12.5 -35.5t-32.5 -9.5h-55q-20 0 -32.5 9.5t-12.5 35.5v46zM548 -27q0 -40 -5 -72t-34 -63q-15 -16 -29.5 -24.5t-29 -12.5t-28 -4.5t-25.5 -0.5h-80q-20 0 -43.5 4.5t-46.5 22.5
q-21 16 -38 44.5t-17 55.5q0 20 14 33.5t33 13.5q38 0 49 -38q8 -27 21.5 -33.5t40.5 -6.5h63q23 0 35 5t17.5 14.5t6 25t0.5 36.5v470h-116q-11 0 -22.5 1.5t-21 6.5t-16 14.5t-6.5 25.5q0 15 6 24.5t15 15t21 7t24 1.5h141q21 0 34.5 -2.5t21.5 -9.5t11.5 -20.5t3.5 -34.5
v-499z" />
    <glyph glyph-name="k" unicode="k" 
d="M441 500l30 25t34 14q20 0 34 -14.5t14 -34.5q0 -17 -9.5 -27t-22.5 -21l-186 -154l226 -188q14 -11 24 -21.5t10 -29.5q0 -20 -14 -34.5t-34 -14.5q-14 0 -24 7.5l-21 15.5l-241 201l-40 -36v-122q0 -12 -1.5 -24t-7 -21.5t-15 -15t-24.5 -5.5t-24.5 5.5t-15 15t-7 21.5
t-1.5 24v605q0 12 1.5 24t7 21.5t15 15t24.5 5.5t24.5 -5.5t15 -15t7 -21.5t1.5 -24v-356z" />
    <glyph glyph-name="l" unicode="l" 
d="M410 96h72q12 0 24 -1.5t21 -7t15 -15t6 -24.5q0 -16 -6.5 -25.5t-16 -14.5t-21.5 -6.5t-22 -1.5h-244q-11 0 -22.5 1.5t-21 6.5t-16 14.5t-6.5 25.5q0 15 6 24.5t15 15t21 7t24 1.5h76v545h-76q-11 0 -22.5 1.5t-21 6.5t-16 14.5t-6.5 25.5q0 15 6 24.5t15 15t21 7
t24 1.5h101q21 0 34.5 -2.5t21.5 -9.5t11.5 -20.5t3.5 -34.5v-574z" />
    <glyph glyph-name="m" unicode="m" 
d="M408 378v-312q0 -12 -1.5 -24t-7 -21.5t-15 -15t-24.5 -5.5t-24.5 5.5t-15 15t-7 21.5t-1.5 24v321v14t-2 15t-7 12t-14 5q-8 0 -14 -5.5l-12 -10.5l-42 -39v-312q0 -12 -1.5 -24t-7 -21.5t-15 -15t-24.5 -5.5t-24.5 5.5t-15 15t-7 21.5t-1.5 24v405q0 13 2 25t7.5 21.5
t15.5 15.5t25 6q18 0 29.5 -10.5t16.5 -27.5l8 6q19 14 33.5 23t39.5 9q28 0 49.5 -12.5t38.5 -35.5l8 8l19.5 19t17.5 12.5t20 6.5t27 2q50 0 80 -39q18 -23 20 -45.5t3 -50.5l10 -332q0 -13 -1 -25.5t-6 -23t-14.5 -17t-25.5 -6.5q-15 0 -24 5.5t-14.5 15t-7.5 21t-2 23.5
l-10 317v15t-1.5 17t-6 13.5t-14.5 5.5q-11 0 -22.5 -13l-17.5 -20z" />
    <glyph glyph-name="n" unicode="n" 
d="M221 345v-279q0 -12 -1.5 -24t-7 -21.5t-15 -15t-24.5 -5.5t-24.5 5.5t-15 15t-7 21.5t-1.5 24v402q0 13 1.5 26t6 23t14 16t26.5 6q16 0 25.5 -6t14.5 -16t6.5 -22.5t1.5 -25.5v-11v-2l78 51q19 12 39.5 22t43.5 10h71q28 0 47.5 -8t41.5 -27q16 -14 24.5 -28.5
t12.5 -30.5t4.5 -34t1.5 -37l10 -302q0 -13 -1 -25.5t-6 -23t-14.5 -17t-25.5 -6.5q-15 0 -24 5.5t-14.5 15t-7.5 21t-2 23.5l-10 296q-1 22 -3 37.5t-8.5 25.5t-19 14.5t-34.5 4.5h-32q-15 0 -30 -9z" />
    <glyph glyph-name="o" unicode="o" 
d="M221 179q0 -15 7 -27t28 -30q16 -14 29.5 -20t36.5 -6h76q23 0 36.5 6t29.5 20q21 18 28 30t7 27v181q0 15 -7 27t-28 30q-16 14 -29.5 20t-36.5 6h-76q-23 0 -36.5 -6t-29.5 -20q-21 -18 -28 -30t-7 -27v-181zM125 360q0 24 3 41t9.5 31t18.5 26t30 27t32 25t28.5 16.5
t32.5 9.5t43 3h76q25 0 43 -3t32.5 -9.5t28.5 -16.5t32 -25t30 -27t18.5 -26t9.5 -31t3 -41v-181q0 -24 -3.5 -41t-11 -31.5t-20 -27.5t-31.5 -29t-33 -25.5t-28.5 -15t-30.5 -7.5t-39 -2h-76q-23 0 -39 2t-30.5 7.5t-28.5 15t-33 25.5t-31.5 29t-20 27.5t-11 31.5t-3.5 41
v181z" />
    <glyph glyph-name="p" unicode="p" 
d="M499 324q0 14 -4.5 23t-15.5 19l-72 60q-7 6 -15 11.5t-18 5.5h-25q-11 0 -22 -10t-19 -18l-60 -57q-15 -14 -21 -24.5t-6 -26.5v-94q0 -11 3 -22.5t11 -18.5l73 -69q11 -11 21.5 -19t19.5 -8h25q10 0 18 5.5t15 11.5l72 60q11 10 15.5 19t4.5 23v129zM595 208
q0 -26 -1.5 -44.5t-8 -34t-18.5 -30t-33 -30.5l-58 -46l-36 -27.5t-41 -15.5h-65q-32 0 -51.5 17.5l-42.5 39.5l-19 18v-193q0 -12 -1.5 -24t-7 -21.5t-15 -15t-24.5 -5.5t-24.5 5.5t-15 15t-7 21.5t-1.5 24v606q0 13 1.5 25.5t6 22.5t14 16.5t26.5 6.5q29 0 38.5 -19.5
t9.5 -43.5v-12l19 17l20.5 18t23.5 19t24 15t22 6h66q17 0 38.5 -14.5t41.5 -29.5l58 -45q21 -17 33 -31t18.5 -29.5t8 -34.5t1.5 -44v-103z" />
    <glyph glyph-name="q" unicode="q" 
d="M499 329q0 17 -9 25.5t-20 17.5l-55 47q-14 12 -23 18t-25 6h-58q-25 0 -50 -21q-17 -14 -27.5 -26t-10.5 -30v-193q0 -18 10.5 -30t27.5 -26q25 -21 50 -21h58q16 0 25 6.5t23 17.5l55 47q11 9 20 17.5t9 24.5v120zM595 -138q0 -12 -1.5 -24t-7 -21.5t-15 -15
t-24.5 -5.5t-24.5 5.5t-15 15t-7 21.5t-1.5 24v208l-17 -17q-20 -20 -41.5 -36.5t-53.5 -16.5h-85q-31 0 -50 7t-42 27l-33 28q-30 25 -41 49t-11 62v193q0 19 2.5 34t8.5 28t16 24.5t25 24.5l33 28q23 20 42.5 27t49.5 7h83q24 0 46.5 -13.5t45.5 -35.5l22 -21v6
q0 24 9.5 44t38.5 20q15 0 24.5 -6t15 -15.5t7 -21.5t1.5 -24v-610z" />
    <glyph glyph-name="r" unicode="r" 
d="M125 468q0 13 1.5 26t6 23t14 16t26.5 6q29 0 38.5 -20t9.5 -44v-39l75 62q20 17 41 29t44 12h77q56 0 94 -38q24 -24 33.5 -50t9.5 -59q0 -12 -1.5 -24t-6.5 -21.5t-14.5 -15.5t-24.5 -6q-26 0 -37.5 18t-11.5 41q0 12 -1 21.5t-9 20.5q-9 13 -25 15t-33 2h-28
q-14 0 -24.5 -6t-23.5 -17l-134 -111v-243q0 -12 -1.5 -24t-7 -21.5t-15 -15t-24.5 -5.5t-24.5 5.5t-15 15t-7 21.5t-1.5 24v402z" />
    <glyph glyph-name="s" unicode="s" 
d="M289 443h-17t-17.5 -2t-14 -7.5t-5.5 -17.5t7.5 -17.5t18.5 -10.5l240 -109q47 -21 70.5 -52.5t23.5 -83.5q0 -73 -44.5 -108t-113.5 -35h-148q-38 0 -65.5 4.5t-54.5 25.5q-14 11 -29 24.5t-15 31.5q0 20 15 34t35 14q21 0 37 -17q13 -14 33.5 -17.5t43.5 -3.5h130
q13 0 27 0.5t26 5t19.5 15.5t7.5 32q0 17 -16.5 28.5t-33.5 19.5l-226 103q-40 18 -62 44t-22 73q0 28 10.5 51t28.5 38.5t42 24t51 8.5h164q20 0 34.5 -1t27 -4.5t24 -10t25.5 -17.5t26 -22.5t12 -31.5t-14.5 -34t-34.5 -14q-14 0 -23 5t-18 15q-12 13 -25.5 16t-33.5 3
h-146z" />
    <glyph glyph-name="t" unicode="t" 
d="M318 181q0 -20 0.5 -36t6.5 -27t19 -16.5t38 -5.5h49q29 0 44 6.5t23 35.5q5 17 17.5 28t30.5 11q20 0 34.5 -14t14.5 -34t-10.5 -43t-22.5 -37q-26 -32 -60 -40.5t-72 -8.5h-49q-36 0 -67 10t-57 38q-14 15 -21 30.5t-10 32t-3.5 34t-0.5 37.5v261h-31q-11 0 -22.5 1.5
t-21 6.5t-16 14.5t-6.5 25.5q0 15 6 24.5t15 15t21 7t24 1.5h31v98q0 12 1.5 24t7 21.5t15 15t24.5 5.5t24.5 -5.5t15 -15t7 -21.5t1.5 -24v-98h161q12 0 24 -1.5t21 -7t15 -15t6 -24.5q0 -16 -6.5 -25.5t-16 -14.5t-21.5 -6.5t-22 -1.5h-161v-262z" />
    <glyph glyph-name="u" unicode="u" 
d="M595 71v-20.5t-4 -23.5t-14 -19t-29 -8q-15 0 -24.5 6t-15 15.5t-7 21.5t-1.5 24v16l-78 -51q-23 -15 -43 -23.5t-40 -8.5h-71q-20 0 -42.5 7.5t-46.5 27.5q-16 14 -24.5 28.5t-12.5 30.5t-5 33.5t-2 37.5l-10 302q0 13 1 26t6 23t14.5 16.5t26.5 6.5q15 0 24.5 -6
t14 -15.5t6.5 -21t2 -23.5l10 -295q1 -17 2.5 -34t7.5 -28t22.5 -15.5t33.5 -4.5h32q16 0 30 9l141 89v279q0 12 1.5 24t7 21.5t15 15t24.5 5.5t24.5 -5.5t15 -15t7 -21.5t1.5 -24v-402z" />
    <glyph glyph-name="v" unicode="v" 
d="M499 419v49q0 13 1.5 25.5t7 22.5t15 16.5t25.5 6.5q26 0 36.5 -17.5t10.5 -40.5v-68q0 -12 -3 -20t-8 -19l-143 -314q-3 -8 -8 -18t-11.5 -19.5t-14 -16t-16.5 -6.5h-62q-9 0 -16.5 6.5t-14 16t-11.5 19.5t-8 18l-143 314q-5 11 -8 19t-3 20v68q0 23 10.5 40.5
t36.5 17.5q16 0 25.5 -6.5t15 -16.5t7 -22.5t1.5 -25.5v-49l139 -319z" />
    <glyph glyph-name="w" unicode="w" 
d="M408 222l52 -89l30 89l10 248q0 12 2 24.5t7 22.5t14.5 16t24.5 6q31 0 39.5 -22t7.5 -47l-10 -267l-47 -142q-4 -11 -7 -22t-8.5 -19.5t-13 -14t-20.5 -5.5h-37q-13 0 -23 10.5t-17 20.5l-52 78l-52 -78q-7 -10 -17 -20.5t-23 -10.5h-37q-13 0 -20.5 5.5t-13 14
t-8.5 19.5t-7 22l-47 142l-10 267q0 12 1 24.5t6 22.5t14.5 16t25.5 6q15 0 24.5 -6t14.5 -16t7 -22.5t2 -24.5l10 -248l30 -89l52 89v88q0 12 1.5 24t7 21.5t15 15.5t24.5 6t24.5 -6t15 -15.5t7 -21.5t1.5 -24v-88z" />
    <glyph glyph-name="x" unicode="x" 
d="M295 269l-147 174l-15.5 21t-7.5 24q0 20 14 35.5t34 15.5q22 0 37 -17.5l28 -33.5l122 -150l122 150l28 33.5t37 17.5q20 0 34 -15.5t14 -35.5q0 -14 -7.5 -24l-15.5 -21l-147 -174l147 -174l15.5 -21t7.5 -24q0 -20 -14 -35t-34 -15q-22 0 -37 17l-28 33l-122 150
l-122 -150l-28 -33t-37 -17q-20 0 -34 15t-14 35q0 14 7.5 24l15.5 21z" />
    <glyph glyph-name="y" unicode="y" 
d="M499 418v55q0 12 1.5 24t7 21.5t15 15t24.5 5.5t24.5 -5.5t15 -15t7 -21.5t1.5 -24v-39q0 -18 -2 -31.5t-10 -29.5l-242 -527q-8 -17 -14.5 -27t-15 -15t-19.5 -6.5t-27 -1.5h-74q-11 0 -22.5 1.5t-21 6.5t-16 14.5t-6.5 25.5q0 15 6 24.5t15 15t21 7t24 1.5h66l71 147
h-5q-15 0 -23.5 3.5t-14 10t-9.5 16t-10 21.5l-118 261q-10 22 -16.5 40t-6.5 39v43q0 12 1.5 24t7 21.5t15 15t24.5 5.5t24.5 -5.5t15 -15t7 -21.5t1.5 -24v-55l129 -283h21z" />
    <glyph glyph-name="z" unicode="z" 
d="M474 443h-256q-11 0 -22.5 1.5t-21 6.5t-16 14.5t-6.5 25.5q0 15 6 24.5t15 15t21 7t24 1.5h312q37 0 51 -12t14 -38v-32q0 -14 -5.5 -26t-22.5 -28l-322 -307h284q12 0 24 -1.5t21 -7t15 -15t6 -24.5q0 -16 -6.5 -25.5t-16 -14.5t-21.5 -6.5t-22 -1.5h-333
q-25 0 -39.5 5t-21.5 12.5t-8.5 17.5t-1.5 21v25q0 17 2.5 25.5t15.5 20.5z" />
    <glyph glyph-name="braceleft" unicode="{" 
d="M557 100q20 0 35 -11.5t15 -38.5t-15 -38.5t-35 -11.5h-136q-28 0 -49 7t-40 30q-16 19 -19 35.5t-3 39.5v158q0 39 -13 54t-53 15h-81q-20 0 -35 11.5t-15 38.5t15 38.5t35 11.5h81q40 0 53 15t13 54v158q0 23 3 39.5t19 35.5q19 23 40 30t49 7h136q20 0 35 -11.5
t15 -38.5t-15 -38.5t-35 -11.5h-147v-179q0 -32 -8.5 -59.5t-31.5 -50.5q23 -25 31.5 -52t8.5 -59v-178h147z" />
    <glyph glyph-name="bar" unicode="|" 
d="M310 -239v1052h100v-1052h-100z" />
    <glyph glyph-name="braceright" unicode="}" 
d="M310 100v178q0 32 8.5 59t31.5 52q-23 23 -31.5 50.5t-8.5 59.5v179h-147q-20 0 -35 11.5t-15 38.5t15 38.5t35 11.5h136q28 0 49 -7t40 -30q16 -19 19 -35.5t3 -39.5v-158q0 -39 13 -54t53 -15h81q20 0 35 -11.5t15 -38.5t-15 -38.5t-35 -11.5h-81q-40 0 -53 -15
t-13 -54v-158q0 -23 -3 -39.5t-19 -35.5q-19 -23 -40 -30t-49 -7h-136q-20 0 -35 11.5t-15 38.5t15 38.5t35 11.5h147z" />
    <glyph glyph-name="asciitilde" unicode="~" 
d="M445 376q10 -10 17.5 -15.5t19.5 -5.5h37q12 0 12 12v62q0 24 11 37t39 13q27 1 38.5 -11.5t11.5 -36.5v-87q0 -38 -22.5 -62.5t-60.5 -24.5h-83q-44 0 -75 31l-115 114q-10 10 -17.5 15.5t-19.5 5.5h-37q-12 0 -12 -12v-62q0 -24 -11 -37t-39 -13q-27 -1 -38.5 11.5
t-11.5 36.5v87q0 38 22.5 62.5t60.5 24.5h83q44 0 75 -31z" />
    <glyph glyph-name="exclamdown" unicode="&#xa1;" 
d="M346 638q-56 0 -56 57v26q0 57 56 57h26q56 0 56 -57v-26q0 -57 -56 -57h-26zM333 0q-32 0 -38.5 19t-4.5 55l18 343q1 26 10.5 45t40.5 19q15 0 25 -5t15.5 -14t7.5 -20.5t3 -24.5l18 -343q2 -36 -5 -55t-39 -19h-51z" />
    <glyph glyph-name="cent" unicode="&#xa2;" 
d="M153 558q0 20 15 35t35 15h107v120q0 24 11.5 37t38.5 13t38.5 -13t11.5 -37v-120h107q20 0 35 -11.5t15 -38.5t-15 -38.5t-35 -11.5h-264v-158h264q20 0 35 -11.5t15 -38.5t-15 -38.5t-35 -11.5h-107v-120q0 -24 -11.5 -37t-38.5 -13t-38.5 13t-11.5 37v120h-107
q-20 0 -35 15t-15 35v258z" />
    <glyph glyph-name="sterling" unicode="&#xa3;" 
d="M557 100q20 0 35 -11.5t15 -38.5t-15 -38.5t-35 -11.5h-394q-20 0 -35 11.5t-15 38.5t15 38.5t35 11.5h60l70 240h-130q-20 0 -35 11.5t-15 38.5t15 38.5t35 11.5h158l77 268q9 32 41 51t82 19h36q20 0 35 -11.5t15 -38.5t-15 -38.5t-35 -11.5h-31q-20 0 -28.5 -10.5
t-12.5 -23.5l-59 -204h131q20 0 35 -11.5t15 -38.5t-15 -38.5t-35 -11.5h-160l-69 -240h229z" />
    <glyph glyph-name="fraction" unicode="&#x2044;" 
d="M234 88q-8 -14 -19.5 -20t-22.5 -6q-19 0 -34 13.5t-15 33.5q0 14 9 29l335 549q8 13 18 18.5t21 5.5q19 0 35 -14t16 -34q0 -12 -8 -26z" />
    <glyph glyph-name="yen" unicode="&#xa5;" 
d="M556 354q20 0 35 -11.5t15 -38.5t-15 -38.5t-35 -11.5h-147v-204q0 -24 -11.5 -37t-38.5 -13t-38.5 13t-11.5 37v204h-147q-20 0 -35 11.5t-15 38.5t15 38.5t35 11.5h147v20l-193 334q-5 8 -4.5 18.5t4 20.5t9 17.5t11.5 9.5q26 9 44 1.5t29 -27.5l150 -259l150 259
q11 20 29 27.5t44 -1.5q6 -2 11.5 -9.5t9 -17.5t3.5 -20.5t-4 -18.5l-193 -334v-20h147z" />
    <glyph glyph-name="florin" unicode="&#x192;" 
d="M260 -134q-9 -32 -41 -51t-82 -19h-36q-20 0 -35 11.5t-15 38.5t15 38.5t35 11.5h31q20 0 28.5 10.5t12.5 23.5l120 410h-130q-20 0 -35 11.5t-15 38.5t15 38.5t35 11.5h158l77 268q9 32 41 51t82 19h36q20 0 35 -11.5t15 -38.5t-15 -38.5t-35 -11.5h-31
q-20 0 -28.5 -10.5t-12.5 -23.5l-59 -204h131q20 0 35 -11.5t15 -38.5t-15 -38.5t-35 -11.5h-160z" />
    <glyph glyph-name="section" unicode="&#xa7;" 
d="M317 448l-92 -73l202 -249l92 73zM308 613l279 -346q31 -38 31 -72q0 -39 -43 -73l-88 -71l37 -45q18 -23 18 -46q0 -36 -34 -64l-96 -78q-26 -22 -54 -22q-32 0 -56 29l-102 126q-16 19 -16 38q0 16 15.5 32t33.5 16q22 0 42 -25l88 -109l73 58l-279 346q-31 38 -31 72
q0 39 43 73l87 70l-36 46q-18 23 -18 46q0 36 34 64l96 78q26 22 54 22q32 0 56 -29l102 -126q16 -19 16 -38q0 -16 -15.5 -32t-33.5 -16q-22 0 -42 25l-88 109z" />
    <glyph glyph-name="currency" unicode="&#xa4;" 
d="M287 310h146v186h-146v-186zM533 330q0 -26 -6 -45l54 -67q13 -16 13 -33q0 -20 -14.5 -33.5t-34.5 -13.5q-11 0 -22 5t-21 17l-52 63q-7 -1 -14 -1.5t-15 -0.5h-122q-8 0 -15 0.5t-14 1.5l-52 -63q-10 -12 -21 -17t-22 -5q-20 0 -34.5 13.5t-14.5 33.5q0 17 13 33l54 67
q-6 19 -6 45v146q0 25 6 45l-54 67q-13 16 -13 33q0 20 14.5 33.5t34.5 13.5q11 0 22 -5t21 -17l52 -63q7 1 14 1.5t15 0.5h122q8 0 15 -0.5t14 -1.5l52 63q10 12 21 17t22 5q20 0 34.5 -13.5t14.5 -33.5q0 -17 -13 -33l-54 -67q6 -20 6 -45v-146z" />
    <glyph glyph-name="quotesingle" unicode="'" 
d="M455 728l-43 -213l-5.5 -24t-8 -19t-15.5 -12.5t-27 -4.5t-27 4.5t-15.5 12.5t-8 19l-5.5 24l-43 213v50h198v-50z" />
    <glyph glyph-name="quotedblleft" unicode="&#x201c;" 
d="M581 432q0 -20 -11.5 -35t-49.5 -15h-60q-38 0 -49.5 15t-11.5 35q0 8 4.5 24.5t7.5 28.5l58 234q7 26 16.5 42.5t40.5 16.5q34 0 44.5 -18.5t10.5 -48.5v-279zM321 432q0 -20 -11.5 -35t-49.5 -15h-60q-38 0 -49.5 15t-11.5 35q0 8 4.5 24.5t7.5 28.5l58 234
q7 26 16.5 42.5t40.5 16.5q34 0 44.5 -18.5t10.5 -48.5v-279z" />
    <glyph glyph-name="guillemotleft" unicode="&#xab;" 
d="M620 151q8 -10 12.5 -19t4.5 -21q0 -18 -12 -31t-34 -13q-16 0 -26.5 7t-19.5 18l-211 244q-11 13 -15 22.5t-4 24.5v56q0 15 4 24.5t15 22.5l211 244q9 11 19.5 18t26.5 7q22 0 34 -13t12 -31q0 -12 -4.5 -21t-12.5 -19l-222 -260zM375 151q8 -10 12.5 -19t4.5 -21
q0 -18 -12 -31t-34 -13q-16 0 -26.5 7t-19.5 18l-211 244q-11 13 -15 22.5t-4 24.5v56q0 15 4 24.5t15 22.5l211 244q9 11 19.5 18t26.5 7q22 0 34 -13t12 -31q0 -12 -4.5 -21t-12.5 -19l-222 -260z" />
    <glyph glyph-name="guilsinglleft" unicode="&#x2039;" 
d="M208 411l342 -226q18 -12 33.5 -24.5t15.5 -37.5q0 -21 -15.5 -38t-36.5 -17q-12 0 -22 5t-19 11l-343 227q-14 9 -22.5 15.5t-13 13t-5.5 16.5t-1 27v63q0 15 1.5 23.5t5.5 15t11.5 12t19.5 13.5l345 229q9 6 20 11t23 5q21 0 36.5 -16.5t15.5 -37.5q0 -19 -9 -30.5
t-24 -21.5z" />
    <glyph glyph-name="guilsinglright" unicode="&#x203a;" 
d="M154 649q-15 10 -24 21.5t-9 30.5q0 21 15.5 37.5t36.5 16.5q12 0 23 -5t20 -11l345 -229q12 -8 19.5 -13.5t11.5 -12t5.5 -15t1.5 -23.5v-63q0 -17 -1 -27t-5.5 -16.5t-13 -13t-22.5 -15.5l-343 -227q-9 -6 -19 -11t-22 -5q-21 0 -36.5 17t-15.5 38q0 25 15.5 37.5
t33.5 24.5l342 226z" />
    <glyph glyph-name="endash" unicode="&#x2013;" 
d="M512 438q31 0 45.5 -11.5t14.5 -38.5q0 -50 -60 -50h-304q-60 0 -60 50t60 50h304z" />
    <glyph glyph-name="dagger" unicode="&#x2020;" 
d="M312 687q0 24 10.5 37t37.5 13t37.5 -13t10.5 -37v-73h77q20 0 35 -10.5t15 -37.5t-15 -37.5t-35 -10.5h-77v-309q0 -24 -10.5 -37t-37.5 -13t-37.5 13t-10.5 37v309h-77q-20 0 -35 10.5t-15 37.5t15 37.5t35 10.5h77v73z" />
    <glyph glyph-name="daggerdbl" unicode="&#x2021;" 
d="M312 518h-77q-20 0 -35 10.5t-15 37.5t15 37.5t35 10.5h77v73q0 24 10.5 37t37.5 13t37.5 -13t10.5 -37v-73h77q20 0 35 -10.5t15 -37.5t-15 -37.5t-35 -10.5h-77v-140h77q20 0 35 -10.5t15 -37.5t-15 -37.5t-35 -10.5h-77v-73q0 -24 -10.5 -37t-37.5 -13t-37.5 13
t-10.5 37v73h-77q-20 0 -35 10.5t-15 37.5t15 37.5t35 10.5h77v140z" />
    <glyph glyph-name="periodcentered" unicode="&#xb7;" 
d="M324 296q-17 0 -29 2.5t-23 16.5q-8 11 -9.5 21t-1.5 24v56q0 14 1.5 24t9.5 21q11 14 23 16.5t29 2.5h72q17 0 29 -2.5t23 -16.5q8 -11 9.5 -21t1.5 -24v-56q0 -14 -1.5 -24t-9.5 -21q-11 -14 -23 -16.5t-29 -2.5h-72z" />
    <glyph glyph-name="paragraph" unicode="&#xb6;" 
d="M149 422q-21 0 -35.5 15t-14.5 35v256q0 20 14.5 35t35.5 15h391q21 0 34.5 -3.5t20.5 -12t9.5 -22t2.5 -33.5v-657q0 -24 -11.5 -37t-38.5 -13t-38.5 13t-11.5 37v628h-88v-628q0 -24 -11.5 -37t-38.5 -13t-38.5 13t-11.5 37v372h-170z" />
    <glyph glyph-name="bullet" unicode="&#x2022;" 
d="M530 296q0 -15 -7 -27t-28 -30q-16 -14 -29.5 -20t-36.5 -6h-138q-23 0 -36.5 6t-29.5 20q-21 18 -28 30t-7 27v181q0 15 7 27t28 30q16 14 29.5 20t36.5 6h138q23 0 36.5 -6t29.5 -20q21 -18 28 -30t7 -27v-181z" />
    <glyph glyph-name="quotesinglbase" unicode="&#x201a;" 
d="M269 142q0 20 11.5 35t49.5 15h60q38 0 49.5 -15t11.5 -35q0 -8 -4.5 -24.5t-7.5 -28.5l-58 -234q-7 -26 -16.5 -42.5t-40.5 -16.5q-34 0 -44.5 18.5t-10.5 48.5v279z" />
    <glyph glyph-name="quotedblbase" unicode="&#x201e;" 
d="M399 142q0 20 11.5 35t49.5 15h60q38 0 49.5 -15t11.5 -35q0 -8 -4.5 -24.5t-7.5 -28.5l-58 -234q-7 -26 -16.5 -42.5t-40.5 -16.5q-34 0 -44.5 18.5t-10.5 48.5v279zM139 142q0 20 11.5 35t49.5 15h60q38 0 49.5 -15t11.5 -35q0 -8 -4.5 -24.5t-7.5 -28.5l-58 -234
q-7 -26 -16.5 -42.5t-40.5 -16.5q-34 0 -44.5 18.5t-10.5 48.5v279z" />
    <glyph glyph-name="quotedblright" unicode="&#x201d;" 
d="M399 728q0 20 11.5 35t49.5 15h60q38 0 49.5 -15t11.5 -35q0 -8 -4.5 -24.5t-7.5 -28.5l-58 -234q-7 -26 -16.5 -42.5t-40.5 -16.5q-34 0 -44.5 18.5t-10.5 48.5v279zM139 728q0 20 11.5 35t49.5 15h60q38 0 49.5 -15t11.5 -35q0 -8 -4.5 -24.5t-7.5 -28.5l-58 -234
q-7 -26 -16.5 -42.5t-40.5 -16.5q-34 0 -44.5 18.5t-10.5 48.5v279z" />
    <glyph glyph-name="guillemotright" unicode="&#xbb;" 
d="M100 671q-8 10 -12.5 19t-4.5 21q0 18 12 31t34 13q16 0 26.5 -7t19.5 -18l211 -244q11 -13 15 -22.5t4 -24.5v-56q0 -15 -4 -24.5t-15 -22.5l-211 -244q-9 -11 -19.5 -18t-26.5 -7q-22 0 -34 13t-12 31q0 12 4.5 21t12.5 19l222 260zM345 671q-8 10 -12.5 19t-4.5 21
q0 18 12 31t34 13q16 0 26.5 -7t19.5 -18l211 -244q11 -13 15 -22.5t4 -24.5v-56q0 -15 -4 -24.5t-15 -22.5l-211 -244q-9 -11 -19.5 -18t-26.5 -7q-22 0 -34 13t-12 31q0 12 4.5 21t12.5 19l222 260z" />
    <glyph glyph-name="ellipsis" unicode="&#x2026;" 
d="M585 128q-17 0 -29 2.5t-23 16.5q-8 11 -9.5 21t-1.5 24v56q0 14 1.5 24t9.5 21q11 14 23 16.5t29 2.5h10q17 0 29 -2.5t23 -16.5q8 -11 9.5 -21t1.5 -24v-56q0 -14 -1.5 -24t-9.5 -21q-11 -14 -23 -16.5t-29 -2.5h-10zM355 128q-17 0 -29 2.5t-23 16.5q-8 11 -9.5 21
t-1.5 24v56q0 14 1.5 24t9.5 21q11 14 23 16.5t29 2.5h10q17 0 29 -2.5t23 -16.5q8 -11 9.5 -21t1.5 -24v-56q0 -14 -1.5 -24t-9.5 -21q-11 -14 -23 -16.5t-29 -2.5h-10zM125 128q-17 0 -29 2.5t-23 16.5q-8 11 -9.5 21t-1.5 24v56q0 14 1.5 24t9.5 21q11 14 23 16.5t29 2.5
h10q17 0 29 -2.5t23 -16.5q8 -11 9.5 -21t1.5 -24v-56q0 -14 -1.5 -24t-9.5 -21q-11 -14 -23 -16.5t-29 -2.5h-10z" />
    <glyph glyph-name="perthousand" unicode="&#x2030;" 
d="M571 0q-17 0 -29 2.5t-23 16.5q-8 11 -9.5 21t-1.5 24v56q0 14 1.5 24t9.5 21q11 14 23 16.5t29 2.5h72q17 0 29 -2.5t23 -16.5q8 -11 9.5 -21t1.5 -24v-56q0 -14 -1.5 -24t-9.5 -21q-11 -14 -23 -16.5t-29 -2.5h-72zM106 594q-17 0 -29 2.5t-23 16.5q-8 11 -9.5 21
t-1.5 24v56q0 14 1.5 24t9.5 21q11 14 23 16.5t29 2.5h72q17 0 29 -2.5t23 -16.5q8 -11 9.5 -21t1.5 -24v-56q0 -14 -1.5 -24t-9.5 -21q-11 -14 -23 -16.5t-29 -2.5h-72zM319 0q-17 0 -29 2.5t-23 16.5q-8 11 -9.5 21t-1.5 24v56q0 14 1.5 24t9.5 21q11 14 23 16.5t29 2.5
h72q17 0 29 -2.5t23 -16.5q8 -11 9.5 -21t1.5 -24v-56q0 -14 -1.5 -24t-9.5 -21q-11 -14 -23 -16.5t-29 -2.5h-72zM114 85q-13 -16 -37 -16q-21 0 -35 13.5t-14 35.5q0 20 11 34l365 533q8 12 19.5 16.5t22.5 4.5q20 0 34 -14t14 -36q0 -19 -11 -33z" />
    <glyph glyph-name="questiondown" unicode="&#xbf;" 
d="M459 678q-21 0 -35.5 15t-14.5 36q0 20 14.5 34.5t35.5 14.5q20 0 35 -14.5t15 -34.5t-15 -35.5t-35 -15.5zM213 158l49 -42l253 217q9 8 19.5 14t22.5 6q22 0 36 -15.5t14 -36.5q0 -18 -13.5 -31l-25.5 -24l-265 -226q-9 -8 -18 -14t-23 -6t-22 5.5t-19 14.5l-82 70
q-10 8 -15 14t-7.5 12t-3 14t-0.5 20v55q0 13 1 21.5t4.5 14.5t9.5 12t16 15l265 229v61q0 24 11.5 37t38.5 13t38.5 -13t11.5 -37v-74q0 -13 -1 -20.5t-4.5 -13.5t-9.5 -11l-15 -13l-266 -231v-37z" />
    <glyph glyph-name="grave" unicode="`" 
d="M434 668q11 -6 15 -15t4 -19q0 -18 -12.5 -34.5t-31.5 -16.5q-8 0 -18 5l-191 94q-19 10 -21 32q-1 11 3 22.5t11.5 20.5t17.5 15t21 6q12 0 20 -5z" />
    <glyph glyph-name="acute" unicode="&#xb4;" 
d="M468 773q8 5 20 5q11 0 21 -6t17.5 -15t11.5 -20.5t3 -22.5q-2 -22 -21 -32l-191 -94q-10 -5 -18 -5q-19 0 -31.5 16.5t-12.5 34.5q0 10 4 19t15 15z" />
    <glyph glyph-name="circumflex" unicode="&#x2c6;" 
d="M314 762q20 16 46 16t46 -16l123 -97q19 -15 19 -35q0 -18 -13.5 -31.5t-32.5 -13.5q-13 0 -28 10l-114 81l-114 -81q-15 -10 -28 -10q-19 0 -32.5 13.5t-13.5 31.5q0 20 19 35z" />
    <glyph glyph-name="tilde" unicode="&#x2dc;" 
d="M467 722l8 22q8 21 19 29.5t25 8.5q19 0 34.5 -11.5t15.5 -32.5q0 -11 -3 -21l-17 -56q-13 -39 -48 -39q-5 0 -12 1t-11 2l-225 47l-8 -22q-8 -21 -19 -29.5t-25 -8.5q-19 0 -34.5 11.5t-15.5 32.5q0 10 3 21l17 56q13 39 48 39q5 0 12 -1t11 -2z" />
    <glyph glyph-name="macron" unicode="&#xaf;" 
d="M495 737q23 0 34 -10.5t11 -37.5q0 -26 -11 -37.5t-34 -11.5h-269q-23 0 -34.5 11.5t-11.5 37.5q0 27 11.5 37.5t34.5 10.5h269z" />
    <glyph glyph-name="breve" unicode="&#x2d8;" 
d="M279 618q-17 0 -34 6t-32 23l-29 35q-19 24 -19 41t16 29t33 12q19 0 32 -16l12 -14q8 -9 14 -14.5t12.5 -8t14.5 -3t21 -0.5h80q13 0 21 0.5t14.5 3t12.5 8t14 14.5l12 14q13 16 32 16q17 0 33 -12t16 -29t-19 -41l-29 -35q-15 -17 -32 -23t-34 -6h-162z" />
    <glyph glyph-name="dotaccent" unicode="&#x2d9;" 
d="M265 733q0 26 12.5 35.5t32.5 9.5h55q20 0 32.5 -9.5t12.5 -35.5v-46q0 -26 -12.5 -35.5t-32.5 -9.5h-55q-20 0 -32.5 9.5t-12.5 35.5v46z" />
    <glyph glyph-name="dieresis" unicode="&#xa8;" 
d="M534 654q0 -23 -11 -42t-39 -19t-39 19t-11 42v62q0 26 11.5 44t38.5 18t38.5 -18t11.5 -44v-62zM279 654q0 -23 -11 -42t-39 -19t-39 19t-11 42v62q0 26 11.5 44t38.5 18t38.5 -18t11.5 -44v-62z" />
    <glyph glyph-name="ring" unicode="&#x2da;" 
d="M429 689h-138v-89h138v89zM529 620q0 -109 -112 -109h-114q-112 0 -112 109v49q0 109 112 109h114q112 0 112 -109v-49z" />
    <glyph glyph-name="cedilla" unicode="&#xb8;" 
d="M469 10v-154q0 -31 -17 -45.5t-47 -14.5h-115q-50 0 -50 47q0 46 50 46h86v121h93z" />
    <glyph glyph-name="hungarumlaut" unicode="&#x2dd;" 
d="M297 761q12 17 31 17q10 0 21 -4t20 -11.5t14.5 -17.5t5.5 -21q0 -12 -8 -23l-87 -104q-11 -14 -29 -14q-20 0 -35 15t-15 34q0 8 8 21zM490 765q5 5 13.5 9t16.5 4q10 0 20.5 -4.5t19 -12t14 -17t5.5 -20.5q0 -16 -11 -27l-100 -101q-13 -13 -27 -13q-20 0 -34.5 15
t-14.5 35q0 14 9 24z" />
    <glyph glyph-name="ogonek" unicode="&#x2db;" 
d="M360 10v-121h86q50 0 50 -46q0 -47 -50 -47h-115q-30 0 -47 14.5t-17 45.5v154h93z" />
    <glyph glyph-name="caron" unicode="&#x2c7;" 
d="M474 768q15 10 28 10q19 0 32.5 -13.5t13.5 -31.5q0 -20 -19 -35l-123 -97q-20 -16 -46 -16t-46 16l-123 97q-19 15 -19 35q0 18 13.5 31.5t32.5 13.5q13 0 28 -10l114 -81z" />
    <glyph glyph-name="emdash" unicode="&#x2014;" 
d="M626 438q31 0 45.5 -11.5t14.5 -38.5q0 -50 -60 -50h-532q-60 0 -60 50t60 50h532z" />
    <glyph glyph-name="AE" unicode="&#xc6;" 
d="M360 439h-4l-43 -119h47v119zM460 100h97q20 0 35 -11.5t15 -38.5t-15 -38.5t-35 -11.5h-148q-20 0 -34.5 11.5t-14.5 38.5v170h-83l-65 -180q-6 -17 -20.5 -31.5t-42.5 -8.5q-14 3 -22 11t-11.5 18.5t-2.5 21.5t4 21l234 656q8 24 22 37t37 13h147q20 0 35 -11.5
t15 -38.5t-15 -38.5t-35 -11.5h-97v-239h97q20 0 35 -11.5t15 -38.5t-15 -38.5t-35 -11.5h-97v-239z" />
    <glyph glyph-name="ordfeminine" unicode="&#xaa;" 
d="M290 525q-12 0 -26 -4t-14 -19v-49q0 -13 14 -16.5t25 -3.5h78l76 39v9q0 26 -9 35t-34 9h-110zM290 682q-10 0 -20.5 1.5t-19.5 6.5t-15 14t-6 25q0 30 19 39.5t42 9.5h103q31 0 55 -6t49 -31q12 -12 19 -22.5t10.5 -22t5 -24t1.5 -27.5l8 -254q1 -20 -10 -37t-35 -17
q-35 0 -46 43l-53 -27q-17 -8 -28.5 -12t-25.5 -4h-55q-26 0 -47.5 6t-43.5 23q-25 21 -34 45t-9 55v31q0 29 8.5 51t31.5 42q22 19 45 25t49 6h150v7q0 18 -2.5 28.5t-8.5 16.5t-17 7.5t-28 1.5h-92z" />
    <glyph glyph-name="Oslash" unicode="&#xd8;" 
d="M298 185l25 -52q6 -13 13 -23t24 -10q15 0 21.5 9t11.5 20l92 183q11 20 16.5 38.5t5.5 41.5q0 21 -9 41.5l-17 39.5l-7 16zM393 648l-12.5 21t-20.5 9q-16 0 -22.5 -9.5t-11.5 -20.5l-90 -180q-10 -19 -16.5 -37t-6.5 -40q0 -27 7.5 -46.5t18.5 -44.5l5 -9l176 302z
M237 693q20 38 49 61.5t74 23.5q40 0 72 -23.5t48 -59.5l13 23q6 10 11.5 20.5t13 19.5t17 14.5t23.5 5.5q19 0 33.5 -14t14.5 -34q0 -9 -3.5 -18t-8.5 -17l-61 -103l44 -90q14 -29 22 -55t8 -59q0 -29 -8 -56t-20 -52l-98 -198q-18 -37 -47 -59.5t-74 -22.5q-40 0 -73 22
t-49 59l-26 -45q-9 -16 -20 -26t-30 -10q-20 0 -34.5 14t-14.5 34q0 14 6.5 27.5t14.5 25.5l51 87l-45 92q-14 29 -20.5 54.5t-6.5 58.5q0 31 6.5 56.5t20.5 52.5z" />
    <glyph glyph-name="OE" unicode="&#x152;" 
d="M360 678q-16 0 -22 -9t-12 -21l-90 -181q-11 -22 -17 -39t-6 -42q0 -20 4.5 -34.5t12.5 -31.5l96 -190q5 -11 12 -20.5t22 -9.5v578zM360 0q-44 0 -74 23.5t-48 59.5l-92 184q-15 31 -24 57t-9 62q0 32 6 57t20 54l100 199q18 35 48.5 58.5t72.5 23.5h197q20 0 35 -11.5
t15 -38.5t-15 -38.5t-35 -11.5h-97v-239h97q20 0 35 -11.5t15 -38.5t-15 -38.5t-35 -11.5h-97v-239h97q20 0 35 -11.5t15 -38.5t-15 -38.5t-35 -11.5h-197z" />
    <glyph glyph-name="ordmasculine" unicode="&#xba;" 
d="M262 487q0 -9 4.5 -16.5t19.5 -20.5q11 -10 20.5 -14t23.5 -4h67q14 0 23.5 4t20.5 14q15 13 19.5 20.5t4.5 16.5v141q0 9 -4.5 16.5t-19.5 20.5q-11 10 -20.5 14t-23.5 4h-67q-14 0 -23.5 -4t-20.5 -14q-15 -13 -19.5 -20.5t-4.5 -16.5v-141zM167 628q0 20 2.5 34t8 26
t15.5 22.5t25 23.5q14 12 25.5 20t23.5 13.5t27 8t36 2.5h67q21 0 36 -2.5t27 -8t23.5 -13.5t25.5 -20q15 -13 25 -23.5t15.5 -22.5t8 -26t2.5 -34v-141q0 -20 -2.5 -34t-9 -26.5t-17 -24t-26.5 -24.5q-15 -12 -27 -20t-23.5 -12.5t-25 -6.5t-32.5 -2h-67q-19 0 -32.5 2
t-25 6.5t-23.5 12.5t-27 20q-16 13 -26.5 24.5t-17 24t-9 26.5t-2.5 34v141z" />
    <glyph glyph-name="ae" unicode="&#xe6;" 
d="M218 241q-20 0 -36.5 -8t-16.5 -34v-58q0 -14 5 -22.5t13 -13.5t17.5 -7t18.5 -2h35l52 28v83q0 17 -6 25.5t-23 8.5h-59zM450 443q-12 0 -18.5 -3.5t-15.5 -12.5q-11 -11 -13 -16t-2 -14v-101h133v94q0 8 -3 15.5t-14 18.5t-16.5 15t-13.5 4h-37zM296 14l-14 -7
t-12 -4.5t-13.5 -2t-19.5 -0.5h-36q-27 0 -51.5 8.5t-43.5 24t-30 39t-11 53.5v92q0 27 10 49t28 38t42.5 24.5t54.5 8.5h101v22q0 27 -3.5 43.5t-13 25.5t-26 12t-42.5 3h-47q-11 0 -22.5 1.5t-21 6.5t-16 14.5t-6.5 25.5q0 15 6 24.5t15 15t21 7t24 1.5h60q38 0 66.5 -7
t55.5 -35l18 17q21 18 33.5 21.5t30.5 3.5h74q24 0 37.5 -5t31.5 -24l25 -27q22 -22 27.5 -46.5t5.5 -58.5v-107q0 -41 -7.5 -56t-34.5 -15h-191v-63q0 -8 4 -13t14 -14q11 -10 19 -12t21 -2l133 1q15 0 28.5 -8.5t13.5 -39.5q0 -16 -4 -25.5t-10 -15t-13.5 -7t-14.5 -1.5
h-183q-15 0 -22.5 1.5t-18.5 11.5l-26 25z" />
    <glyph glyph-name="dotlessi" unicode="&#x131;" 
d="M410 96h72q12 0 24 -1.5t21 -7t15 -15t6 -24.5q0 -16 -6.5 -25.5t-16 -14.5t-21.5 -6.5t-22 -1.5h-244q-11 0 -22.5 1.5t-21 6.5t-16 14.5t-6.5 25.5q0 15 6 24.5t15 15t21 7t24 1.5h76v347h-76q-11 0 -22.5 1.5t-21 6.5t-16 14.5t-6.5 25.5q0 15 6 24.5t15 15t21 7
t24 1.5h101q21 0 34.5 -2.5t21.5 -9.5t11.5 -20.5t3.5 -34.5v-376z" />
    <glyph glyph-name="oslash" unicode="&#xf8;" 
d="M221 200l230 227q-11 8 -23.5 12t-29.5 4h-76q-23 0 -36.5 -6t-29.5 -20q-21 -18 -28 -30t-7 -27v-160zM464 122q21 18 28 30t7 27v161l-231 -228q11 -8 23.5 -12t30.5 -4h76q23 0 36.5 6t29.5 20zM135 115q-10 24 -10 64v181q0 24 3 41t9.5 31t18.5 26t30 27t32 25
t28.5 16.5t32.5 9.5t43 3h76q22 0 39 -2.5t30.5 -8t26 -13.5t26.5 -19l26 25q19 18 40 18q20 0 34 -13t14 -33q0 -21 -20 -40l-29 -28q10 -24 10 -65v-181q0 -24 -3.5 -41t-11 -31.5t-20 -27.5t-31.5 -29t-33 -25.5t-28.5 -15t-30.5 -7.5t-39 -2h-76q-22 0 -37.5 1.5
t-29 6.5t-27 13.5t-30.5 22.5l-26 -26q-10 -10 -20.5 -14t-20.5 -4q-19 0 -32.5 13.5t-13.5 32.5q0 20 17 37z" />
    <glyph glyph-name="oe" unicode="&#x153;" 
d="M448 443q-12 0 -18.5 -3.5t-15.5 -12.5q-11 -11 -13 -16t-2 -14v-101h139v94q0 8 -3 15.5t-14 18.5t-16.5 15t-13.5 4h-43zM161 139q0 -9 2.5 -15.5t10.5 -14.5q11 -11 16.5 -12t18.5 -1h49q10 0 16.5 3.5t14.5 12.5q14 14 14 25v259q0 11 -4 17.5t-12 14.5t-13.5 11.5
t-14.5 3.5h-41q-17 0 -24 -3t-16 -11q-6 -7 -9.5 -11.5t-5 -9t-2 -10t-0.5 -13.5v-246zM409 0q-15 0 -22.5 1.5t-18.5 11.5l-20 19l-21 -19q-8 -7 -17.5 -10t-29.5 -3h-88q-15 0 -25.5 1t-19.5 5t-18 10.5t-21 17.5t-20.5 20t-13.5 18.5t-7 21.5t-2 28v273q0 19 2 32.5
t7 24.5t13.5 21t20.5 22t22 20.5t20.5 14t23.5 7.5t31 2h55q31 0 45.5 -6.5t27.5 -18.5l18 -17l18 17q21 18 33.5 21.5t30.5 3.5h74q24 0 37.5 -5t31.5 -24l25 -27q22 -22 27.5 -46.5t5.5 -58.5v-107q0 -41 -7.5 -56t-34.5 -15h-193v-63q0 -8 4 -13t14 -14q11 -10 19 -12
t21 -2l135 1q15 0 28.5 -8.5t13.5 -39.5q0 -16 -4 -25.5t-10 -15t-13.5 -7t-14.5 -1.5h-183z" />
    <glyph glyph-name="germandbls" unicode="&#xdf;" 
d="M428 737q32 0 57 -10.5t42 -27t26 -37t9 -39.5v-76q0 -51 -16 -72.5t-67 -21.5h-18q-14 0 -18 -4.5t-4 -12.5q0 -4 4.5 -10.5t11 -14l13 -15t10.5 -11.5l113 -112l28.5 -31t24 -30.5t16.5 -32t6 -36.5q0 -30 -8.5 -56t-28 -45.5t-50 -30.5t-74.5 -11h-33q-26 0 -54 5
t-57 25q-14 10 -29 24t-15 32q0 20 15 34t35 14q21 0 37 -17q13 -14 29.5 -17.5t39.5 -3.5h31q32 0 46.5 11.5t14.5 31.5q0 8 -2 14t-7 13.5t-14 17.5l-23 25l-142 144q-20 22 -28.5 43.5t-8.5 44.5q0 47 28 72.5t74 25.5h24v39q0 36 -12.5 49.5t-43.5 13.5h-60
q-24 0 -41.5 -3t-29 -12t-16.5 -25.5t-5 -42.5v-492q0 -12 -1.5 -24t-7 -21.5t-15 -15t-24.5 -5.5t-24.5 5.5t-15 15t-7 21.5t-1.5 24v377h-27q-11 0 -22.5 1.5t-21 6.5t-16 14.5t-6.5 25.5q0 15 6 24.5t15 15t21 7t24 1.5h27v13q0 41 7 73t39 64q34 33 69 40.5t79 7.5h72z
" />
    <glyph glyph-name="logicalnot" unicode="&#xac;" 
d="M123 456q-20 0 -35 11.5t-15 38.5t15 38.5t35 11.5h444q14 0 23.5 -1.5t20.5 -12.5q12 -11 14 -22.5t2 -27.5v-250q0 -24 -11.5 -37t-38.5 -13t-38.5 13t-11.5 37v214h-404z" />
    <glyph glyph-name="mu" unicode="&#xb5;" 
d="M576 96h60q22 0 33.5 -15t11.5 -33t-11.5 -33t-33.5 -15h-63q-26 0 -44 7t-28.5 18t-15 26t-4.5 30v2l-78 -51q-23 -15 -43 -23.5t-40 -8.5h-13q-37 0 -57 11.5t-34 27.5h-2v-187q0 -30 -15 -43t-35 -13q-18 0 -31.5 12t-14.5 41v236l-12 382q0 13 1 26t6 23t14.5 16.5
t26.5 6.5q15 0 24.5 -6t14 -15.5t6.5 -21t2 -23.5l9 -267q2 -46 22 -78t50 -32h27q16 0 30 9l141 89v279q0 12 1.5 24t7 21.5t15 15t24.5 5.5t24.5 -5.5t15 -15t7 -21.5t1.5 -24v-377z" />
    <glyph glyph-name="trademark" unicode="&#x2122;" 
d="M533 515q-13 0 -21.5 6t-13.5 16l-43 77h-5v-230q0 -21 -13 -34t-35 -13q-20 0 -34 13t-14 34v394h85l94 -167l94 167h85v-394q0 -21 -14 -34t-34 -13q-22 0 -35 13t-13 34v230h-5l-43 -77q-5 -10 -13.5 -16t-21.5 -6zM268 778q24 0 35.5 -15t11.5 -33t-11.5 -33
t-35.5 -15h-57v-298q0 -23 -15 -35t-32 -12t-32 12t-15 35v298h-57q-24 0 -35.5 15t-11.5 33t11.5 33t35.5 15h208z" />
    <glyph glyph-name="plusminus" unicode="&#xb1;" 
d="M551 187q32 0 44 -15t12 -33t-12 -33.5t-44 -15.5h-385q-31 0 -42 15.5t-11 33.5t11 33t42 15h385zM310 658q0 24 11.5 37t38.5 13t38.5 -13t11.5 -37v-129h147q20 0 35 -11.5t15 -38.5t-15 -38.5t-35 -11.5h-147v-127q0 -24 -11.5 -37t-38.5 -13t-38.5 13t-11.5 37v127
h-147q-20 0 -35 11.5t-15 38.5t15 38.5t35 11.5h147v129z" />
    <glyph glyph-name="divide" unicode="&#xf7;" 
d="M335 135q-13 0 -21.5 1.5t-16.5 11.5q-6 8 -7 15.5t-1 17.5v40q0 11 1 18t7 15q8 11 16.5 12.5t21.5 1.5h52q11 0 20 -1.5t17 -12.5q6 -8 7 -15t1 -18v-40q0 -10 -1 -17.5t-7 -15.5q-8 -10 -17 -11.5t-20 -1.5h-52zM335 509q-13 0 -21.5 1.5t-16.5 11.5q-6 8 -7 15.5
t-1 17.5v40q0 11 1 18t7 15q8 11 16.5 12.5t21.5 1.5h52q11 0 20 -1.5t17 -12.5q6 -8 7 -15t1 -18v-40q0 -10 -1 -17.5t-7 -15.5q-8 -10 -17 -11.5t-20 -1.5h-52zM552 437q32 0 44 -15t12 -33t-12 -33.5t-44 -15.5h-387q-31 0 -42 15.5t-11 33.5t11 33t42 15h387z" />
    <glyph glyph-name="degree" unicode="&#xb0;" 
d="M449 689h-178v-250h178v250zM549 459q0 -109 -112 -109h-154q-112 0 -112 109v210q0 109 112 109h154q112 0 112 -109v-210z" />
    <glyph glyph-name="registered" unicode="&#xae;" 
d="M471 0q-32 0 -50 10.5t-34 30.5l-134 203h-15v-158q0 -23 -11 -34.5t-37 -11.5q-48 0 -48 46v475h173q27 0 51.5 -9t43 -25.5t29.5 -40.5t11 -55v-50q0 -53 -27.5 -82.5t-67.5 -39.5l110 -163h15q19 0 29 9t14 22t4 28.5v29.5v387q0 21 -0.5 39t-12.5 36q-15 23 -36.5 29
t-47.5 6h-127q-25 0 -46.5 -4.5t-35.5 -29.5q-10 -18 -20.5 -34t-34.5 -16q-20 0 -34 12.5t-14 32.5q0 12 5.5 25.5t14 26.5t18.5 23.5t19 18.5q31 26 62 33.5t69 7.5h114q26 0 43.5 -1.5t43.5 -12.5q59 -23 87.5 -66.5t28.5 -105.5v-420q0 -35 -3.5 -61.5t-26.5 -54.5
q-20 -24 -49.5 -40t-61.5 -16h-11zM238 340h48q10 0 21.5 1t22 5t17.5 12t7 22v43q0 14 -6.5 22t-16.5 12.5t-22 6t-23 1.5h-48v-125z" />
    <glyph glyph-name="copyright" unicode="&#xa9;" 
d="M391 266q16 0 32 -10.5t16 -37.5q0 -26 -15.5 -37t-32.5 -11h-66q-49 0 -82 21.5t-53 63.5l-22 45q-9 18 -14 41t-5 43q0 24 4.5 45.5t12.5 37.5l26 53q23 46 55.5 66t83.5 20h60q16 0 32 -10.5t16 -37.5q0 -26 -15.5 -37t-32.5 -11h-57q-26 0 -35.5 -5.5t-21.5 -28.5
l-14 -28q-9 -18 -13.5 -31.5t-4.5 -32.5q0 -16 4.5 -28.5t11.5 -26.5l13 -27q11 -23 23 -29.5t39 -6.5h55zM306 0q-38 0 -69 7.5t-62 33.5q-9 7 -19 18t-18.5 24t-14 26.5t-5.5 25.5q0 20 14 32.5t34 12.5q24 0 34.5 -16t20.5 -34q14 -25 35.5 -29.5t46.5 -4.5h177
q19 0 29 9t14 22t4 28.5v29.5v387q0 21 -0.5 39t-12.5 36q-15 23 -36.5 29t-47.5 6h-127q-25 0 -46.5 -4.5t-35.5 -29.5q-10 -18 -20.5 -34t-34.5 -16q-20 0 -34 12.5t-14 32.5q0 12 5.5 25.5t14 26.5t18.5 23.5t19 18.5q31 26 62 33.5t69 7.5h114q26 0 43.5 -1.5
t43.5 -12.5q59 -23 87.5 -66.5t28.5 -105.5v-420q0 -35 -3.5 -61.5t-26.5 -54.5q-20 -24 -49.5 -40t-61.5 -16h-176z" />
    <glyph glyph-name="Aacute" unicode="&#xc1;" 
d="M446 813q6 3 11.5 4t10.5 1q20 0 35 -18t15 -39q0 -14 -4.5 -24.5t-19.5 -17.5l-202 -69q-5 -2 -9.5 -3t-9.5 -1q-16 0 -27 16t-11 36q0 11 6.5 20.5t17.5 14.5zM360 420l-72 -193h144zM252 127l-35 -77q-5 -18 -18 -34t-36 -16q-11 0 -21 4.5t-17 12t-10 16t0 17.5
l194 513q8 19 18 32t33 13t34 -14t18 -31l193 -513q5 -18 -11 -34t-37 -16q-23 0 -36 16t-18 34l-35 77h-216z" />
    <glyph glyph-name="Acircumflex" unicode="&#xc2;" 
d="M228 658q-8 -4 -13 -5t-12 -1q-18 0 -30.5 13.5t-12.5 31.5q0 25 24 38l128 74q25 14 48 14t48 -14l128 -74q24 -13 24 -38q0 -18 -12.5 -31.5t-30.5 -13.5q-7 0 -12 1t-13 5l-132 65zM360 420l-72 -193h144zM252 127l-35 -77q-5 -18 -18 -34t-36 -16q-11 0 -21 4.5
t-17 12t-10 16t0 17.5l194 513q8 19 18 32t33 13t34 -14t18 -31l193 -513q5 -18 -11 -34t-37 -16q-23 0 -36 16t-18 34l-35 77h-216z" />
    <glyph glyph-name="Adieresis" unicode="&#xc4;" 
d="M607 654q0 -23 -11 -42t-39 -19t-39 19t-11 42v62q0 26 11.5 44t38.5 18t38.5 -18t11.5 -44v-62zM213 654q0 -23 -11 -42t-39 -19t-39 19t-11 42v62q0 26 11.5 44t38.5 18t38.5 -18t11.5 -44v-62zM360 420l-72 -193h144zM252 127l-35 -77q-5 -18 -18 -34t-36 -16
q-11 0 -21 4.5t-17 12t-10 16t0 17.5l194 513q8 19 18 32t33 13t34 -14t18 -31l193 -513q5 -18 -11 -34t-37 -16q-23 0 -36 16t-18 34l-35 77h-216z" />
    <glyph glyph-name="Agrave" unicode="&#xc0;" 
d="M444 733q11 -5 17.5 -14.5t6.5 -20.5q0 -20 -11 -36t-27 -16q-5 0 -9.5 1t-9.5 3l-202 69q-15 7 -19.5 17.5t-4.5 24.5q0 21 15 39t35 18q5 0 10.5 -1t11.5 -4zM360 420l-72 -193h144zM252 127l-35 -77q-5 -18 -18 -34t-36 -16q-11 0 -21 4.5t-17 12t-10 16t0 17.5
l194 513q8 19 18 32t33 13t34 -14t18 -31l193 -513q5 -18 -11 -34t-37 -16q-23 0 -36 16t-18 34l-35 77h-216z" />
    <glyph glyph-name="Aring" unicode="&#xc5;" 
d="M458 678h-197v-71h197v71zM371 507h-24l-68 -238h160zM244 507q-43 11 -63 38.5t-20 70.5v50q0 112 112 112h173q112 0 112 -112v-50q0 -43 -20 -70.5t-63 -38.5l130 -457q5 -18 -11 -34t-37 -16q-23 0 -36 16t-18 34l-37 119h-214l-37 -119q-5 -18 -18 -34t-36 -16
q-21 0 -37 16t-11 34z" />
    <glyph glyph-name="Atilde" unicode="&#xc3;" 
d="M507 742q5 9 17.5 22.5t32.5 13.5t35 -11.5t15 -38.5v-46q0 -18 -13.5 -33.5t-36.5 -12.5l-344 36q-5 -9 -17.5 -22.5t-32.5 -13.5t-35 11.5t-15 38.5v46q0 18 13.5 33.5t36.5 12.5zM360 420l-72 -193h144zM252 127l-35 -77q-5 -18 -18 -34t-36 -16q-11 0 -21 4.5t-17 12
t-10 16t0 17.5l194 513q8 19 18 32t33 13t34 -14t18 -31l193 -513q5 -18 -11 -34t-37 -16q-23 0 -36 16t-18 34l-35 77h-216z" />
    <glyph glyph-name="Ccedilla" unicode="&#xc7;" 
d="M499 0v-144q0 -31 -17 -45.5t-47 -14.5h-115q-50 0 -50 47q0 46 50 46h86v111h-24q-57 0 -91.5 23t-58.5 72l-92 186q-13 26 -20 51t-7 54q0 33 6.5 57t21.5 54l92 185q26 52 61 74t93 22h170q8 0 17 -2.5t16.5 -8.5t12 -15.5t4.5 -23.5q0 -27 -16.5 -38.5t-33.5 -11.5
h-167q-16 0 -26 -1t-17.5 -5.5t-13 -13t-12.5 -22.5l-87 -174q-10 -20 -15.5 -36.5t-5.5 -39.5q0 -21 6 -36t15 -33l85 -173q7 -15 13.5 -24t14.5 -13.5t19 -5.5t28 -1h163q8 0 17 -2.5t16.5 -8.5t12 -15.5t4.5 -23.5q0 -27 -16.5 -38.5t-33.5 -11.5h-58z" />
    <glyph glyph-name="Eacute" unicode="&#xc9;" 
d="M446 813q6 3 11.5 4t10.5 1q20 0 35 -18t15 -39q0 -14 -4.5 -24.5t-19.5 -17.5l-202 -69q-5 -2 -9.5 -3t-9.5 -1q-16 0 -27 16t-11 36q0 11 6.5 20.5t17.5 14.5zM557 100q20 0 35 -11.5t15 -38.5t-15 -38.5t-35 -11.5h-444v608h444q20 0 35 -11.5t15 -38.5t-15 -38.5
t-35 -11.5h-344v-141h147q20 0 35 -11.5t15 -38.5t-15 -38.5t-35 -11.5h-147v-167h344z" />
    <glyph glyph-name="Ecircumflex" unicode="&#xca;" 
d="M228 658q-8 -4 -13 -5t-12 -1q-18 0 -30.5 13.5t-12.5 31.5q0 25 24 38l128 74q25 14 48 14t48 -14l128 -74q24 -13 24 -38q0 -18 -12.5 -31.5t-30.5 -13.5q-7 0 -12 1t-13 5l-132 65zM557 100q20 0 35 -11.5t15 -38.5t-15 -38.5t-35 -11.5h-444v608h444q20 0 35 -11.5
t15 -38.5t-15 -38.5t-35 -11.5h-344v-141h147q20 0 35 -11.5t15 -38.5t-15 -38.5t-35 -11.5h-147v-167h344z" />
    <glyph glyph-name="Edieresis" unicode="&#xcb;" 
d="M527 716q0 -23 -11 -42t-39 -19t-39 19t-11 42v32q0 26 11.5 44t38.5 18t38.5 -18t11.5 -44v-32zM293 716q0 -23 -11 -42t-39 -19t-39 19t-11 42v32q0 26 11.5 44t38.5 18t38.5 -18t11.5 -44v-32zM557 100q20 0 35 -11.5t15 -38.5t-15 -38.5t-35 -11.5h-444v608h444
q20 0 35 -11.5t15 -38.5t-15 -38.5t-35 -11.5h-344v-141h147q20 0 35 -11.5t15 -38.5t-15 -38.5t-35 -11.5h-147v-167h344z" />
    <glyph glyph-name="Egrave" unicode="&#xc8;" 
d="M444 733q11 -5 17.5 -14.5t6.5 -20.5q0 -20 -11 -36t-27 -16q-5 0 -9.5 1t-9.5 3l-202 69q-15 7 -19.5 17.5t-4.5 24.5q0 21 15 39t35 18q5 0 10.5 -1t11.5 -4zM557 100q20 0 35 -11.5t15 -38.5t-15 -38.5t-35 -11.5h-444v608h444q20 0 35 -11.5t15 -38.5t-15 -38.5
t-35 -11.5h-344v-141h147q20 0 35 -11.5t15 -38.5t-15 -38.5t-35 -11.5h-147v-167h344z" />
    <glyph glyph-name="Iacute" unicode="&#xcd;" 
d="M446 813q6 3 11.5 4t10.5 1q20 0 35 -18t15 -39q0 -14 -4.5 -24.5t-19.5 -17.5l-202 -69q-5 -2 -9.5 -3t-9.5 -1q-16 0 -27 16t-11 36q0 11 6.5 20.5t17.5 14.5zM410 100h147q20 0 35 -11.5t15 -38.5t-15 -38.5t-35 -11.5h-394q-20 0 -35 11.5t-15 38.5t15 38.5t35 11.5
h147v408h-147q-20 0 -35 11.5t-15 38.5t15 38.5t35 11.5h394q20 0 35 -11.5t15 -38.5t-15 -38.5t-35 -11.5h-147v-408z" />
    <glyph glyph-name="Icircumflex" unicode="&#xce;" 
d="M228 658q-8 -4 -13 -5t-12 -1q-18 0 -30.5 13.5t-12.5 31.5q0 25 24 38l128 74q25 14 48 14t48 -14l128 -74q24 -13 24 -38q0 -18 -12.5 -31.5t-30.5 -13.5q-7 0 -12 1t-13 5l-132 65zM410 100h147q20 0 35 -11.5t15 -38.5t-15 -38.5t-35 -11.5h-394q-20 0 -35 11.5
t-15 38.5t15 38.5t35 11.5h147v408h-147q-20 0 -35 11.5t-15 38.5t15 38.5t35 11.5h394q20 0 35 -11.5t15 -38.5t-15 -38.5t-35 -11.5h-147v-408z" />
    <glyph glyph-name="Idieresis" unicode="&#xcf;" 
d="M527 716q0 -23 -11 -42t-39 -19t-39 19t-11 42v32q0 26 11.5 44t38.5 18t38.5 -18t11.5 -44v-32zM293 716q0 -23 -11 -42t-39 -19t-39 19t-11 42v32q0 26 11.5 44t38.5 18t38.5 -18t11.5 -44v-32zM410 100h147q20 0 35 -11.5t15 -38.5t-15 -38.5t-35 -11.5h-394
q-20 0 -35 11.5t-15 38.5t15 38.5t35 11.5h147v408h-147q-20 0 -35 11.5t-15 38.5t15 38.5t35 11.5h394q20 0 35 -11.5t15 -38.5t-15 -38.5t-35 -11.5h-147v-408z" />
    <glyph glyph-name="Igrave" unicode="&#xcc;" 
d="M444 733q11 -5 17.5 -14.5t6.5 -20.5q0 -20 -11 -36t-27 -16q-5 0 -9.5 1t-9.5 3l-202 69q-15 7 -19.5 17.5t-4.5 24.5q0 21 15 39t35 18q5 0 10.5 -1t11.5 -4zM410 100h147q20 0 35 -11.5t15 -38.5t-15 -38.5t-35 -11.5h-394q-20 0 -35 11.5t-15 38.5t15 38.5t35 11.5
h147v408h-147q-20 0 -35 11.5t-15 38.5t15 38.5t35 11.5h394q20 0 35 -11.5t15 -38.5t-15 -38.5t-35 -11.5h-147v-408z" />
    <glyph glyph-name="Ntilde" unicode="&#xd1;" 
d="M507 742q5 9 17.5 22.5t32.5 13.5t35 -11.5t15 -38.5v-46q0 -18 -13.5 -33.5t-36.5 -12.5l-344 36q-5 -9 -17.5 -22.5t-32.5 -13.5t-35 11.5t-15 38.5v46q0 18 13.5 33.5t36.5 12.5zM507 474q0 24 11.5 37t38.5 13t38.5 -13t11.5 -37v-424q0 -24 -11.5 -37t-38.5 -13
q-14 0 -24 5t-18.5 12.5t-15.5 16l-14 16.5l-270 296h-2v-296q0 -24 -11.5 -37t-38.5 -13t-38.5 13t-11.5 37v424q0 24 11.5 37t38.5 13q13 0 23.5 -5t19 -12.5t15.5 -16l14 -16.5l271 -303h-1h2v303z" />
    <glyph glyph-name="Oacute" unicode="&#xd3;" 
d="M446 813q6 3 11.5 4t10.5 1q20 0 35 -18t15 -39q0 -14 -4.5 -24.5t-19.5 -17.5l-202 -69q-5 -2 -9.5 -3t-9.5 -1q-16 0 -27 16t-11 36q0 11 6.5 20.5t17.5 14.5zM320 131q8 -12 15.5 -21.5t24.5 -9.5t24.5 9.5t15.5 21.5l95 143q5 7 8.5 14t3.5 16t-3.5 16t-8.5 14
l-95 143q-8 12 -15.5 21.5t-24.5 9.5t-24.5 -9.5t-15.5 -21.5l-95 -143q-5 -7 -8.5 -14t-3.5 -16t3.5 -16t8.5 -14zM145 213q-15 23 -23 42.5t-9 48.5q1 29 9 48.5t23 42.5l88 131q24 36 52 59t75 23t75 -23t52 -59l88 -131q15 -23 23 -42.5t9 -48.5q-1 -29 -9 -48.5
t-23 -42.5l-88 -131q-24 -36 -52 -59t-75 -23t-75 23t-52 59z" />
    <glyph glyph-name="Ocircumflex" unicode="&#xd4;" 
d="M228 658q-8 -4 -13 -5t-12 -1q-18 0 -30.5 13.5t-12.5 31.5q0 25 24 38l128 74q25 14 48 14t48 -14l128 -74q24 -13 24 -38q0 -18 -12.5 -31.5t-30.5 -13.5q-7 0 -12 1t-13 5l-132 65zM320 131q8 -12 15.5 -21.5t24.5 -9.5t24.5 9.5t15.5 21.5l95 143q5 7 8.5 14t3.5 16
t-3.5 16t-8.5 14l-95 143q-8 12 -15.5 21.5t-24.5 9.5t-24.5 -9.5t-15.5 -21.5l-95 -143q-5 -7 -8.5 -14t-3.5 -16t3.5 -16t8.5 -14zM145 213q-15 23 -23 42.5t-9 48.5q1 29 9 48.5t23 42.5l88 131q24 36 52 59t75 23t75 -23t52 -59l88 -131q15 -23 23 -42.5t9 -48.5
q-1 -29 -9 -48.5t-23 -42.5l-88 -131q-24 -36 -52 -59t-75 -23t-75 23t-52 59z" />
    <glyph glyph-name="Odieresis" unicode="&#xd6;" 
d="M320 131q8 -12 15.5 -21.5t24.5 -9.5t24.5 9.5t15.5 21.5l95 143q5 7 8.5 14t3.5 16t-3.5 16t-8.5 14l-95 143q-8 12 -15.5 21.5t-24.5 9.5t-24.5 -9.5t-15.5 -21.5l-95 -143q-5 -7 -8.5 -14t-3.5 -16t3.5 -16t8.5 -14zM145 213q-15 23 -23 42.5t-9 48.5q1 29 9 48.5
t23 42.5l88 131q24 36 52 59t75 23t75 -23t52 -59l88 -131q15 -23 23 -42.5t9 -48.5q-1 -29 -9 -48.5t-23 -42.5l-88 -131q-24 -36 -52 -59t-75 -23t-75 23t-52 59zM607 654q0 -23 -11 -42t-39 -19t-39 19t-11 42v62q0 26 11.5 44t38.5 18t38.5 -18t11.5 -44v-62zM213 654
q0 -23 -11 -42t-39 -19t-39 19t-11 42v62q0 26 11.5 44t38.5 18t38.5 -18t11.5 -44v-62z" />
    <glyph glyph-name="Ograve" unicode="&#xd2;" 
d="M444 733q11 -5 17.5 -14.5t6.5 -20.5q0 -20 -11 -36t-27 -16q-5 0 -9.5 1t-9.5 3l-202 69q-15 7 -19.5 17.5t-4.5 24.5q0 21 15 39t35 18q5 0 10.5 -1t11.5 -4zM320 131q8 -12 15.5 -21.5t24.5 -9.5t24.5 9.5t15.5 21.5l95 143q5 7 8.5 14t3.5 16t-3.5 16t-8.5 14
l-95 143q-8 12 -15.5 21.5t-24.5 9.5t-24.5 -9.5t-15.5 -21.5l-95 -143q-5 -7 -8.5 -14t-3.5 -16t3.5 -16t8.5 -14zM145 213q-15 23 -23 42.5t-9 48.5q1 29 9 48.5t23 42.5l88 131q24 36 52 59t75 23t75 -23t52 -59l88 -131q15 -23 23 -42.5t9 -48.5q-1 -29 -9 -48.5
t-23 -42.5l-88 -131q-24 -36 -52 -59t-75 -23t-75 23t-52 59z" />
    <glyph glyph-name="Otilde" unicode="&#xd5;" 
d="M507 742q5 9 17.5 22.5t32.5 13.5t35 -11.5t15 -38.5v-46q0 -18 -13.5 -33.5t-36.5 -12.5l-344 36q-5 -9 -17.5 -22.5t-32.5 -13.5t-35 11.5t-15 38.5v46q0 18 13.5 33.5t36.5 12.5zM320 131q8 -12 15.5 -21.5t24.5 -9.5t24.5 9.5t15.5 21.5l95 143q5 7 8.5 14t3.5 16
t-3.5 16t-8.5 14l-95 143q-8 12 -15.5 21.5t-24.5 9.5t-24.5 -9.5t-15.5 -21.5l-95 -143q-5 -7 -8.5 -14t-3.5 -16t3.5 -16t8.5 -14zM145 213q-15 23 -23 42.5t-9 48.5q1 29 9 48.5t23 42.5l88 131q24 36 52 59t75 23t75 -23t52 -59l88 -131q15 -23 23 -42.5t9 -48.5
q-1 -29 -9 -48.5t-23 -42.5l-88 -131q-24 -36 -52 -59t-75 -23t-75 23t-52 59z" />
    <glyph glyph-name="Uacute" unicode="&#xda;" 
d="M446 813q6 3 11.5 4t10.5 1q20 0 35 -18t15 -39q0 -14 -4.5 -24.5t-19.5 -17.5l-202 -69q-5 -2 -9.5 -3t-9.5 -1q-16 0 -27 16t-11 36q0 11 6.5 20.5t17.5 14.5zM507 558q0 24 11.5 37t38.5 13t38.5 -13t11.5 -37v-391q0 -36 -7.5 -64t-33.5 -56q-25 -26 -53 -36.5
t-63 -10.5h-180q-35 0 -63 10.5t-53 36.5q-26 28 -33.5 56t-7.5 64v391q0 24 11.5 37t38.5 13t38.5 -13t11.5 -37v-383q0 -18 0.5 -33.5t14.5 -28.5q13 -12 29.5 -12.5t32.5 -0.5h140q16 0 32.5 0.5t29.5 12.5q14 13 14.5 28.5t0.5 33.5v383z" />
    <glyph glyph-name="Ucircumflex" unicode="&#xdb;" 
d="M228 658q-8 -4 -13 -5t-12 -1q-18 0 -30.5 13.5t-12.5 31.5q0 25 24 38l128 74q25 14 48 14t48 -14l128 -74q24 -13 24 -38q0 -18 -12.5 -31.5t-30.5 -13.5q-7 0 -12 1t-13 5l-132 65zM507 558q0 24 11.5 37t38.5 13t38.5 -13t11.5 -37v-391q0 -36 -7.5 -64t-33.5 -56
q-25 -26 -53 -36.5t-63 -10.5h-180q-35 0 -63 10.5t-53 36.5q-26 28 -33.5 56t-7.5 64v391q0 24 11.5 37t38.5 13t38.5 -13t11.5 -37v-383q0 -18 0.5 -33.5t14.5 -28.5q13 -12 29.5 -12.5t32.5 -0.5h140q16 0 32.5 0.5t29.5 12.5q14 13 14.5 28.5t0.5 33.5v383z" />
    <glyph glyph-name="Udieresis" unicode="&#xdc;" 
d="M507 654q0 -23 -11 -42t-39 -19t-39 19t-11 42v62q0 26 11.5 44t38.5 18t38.5 -18t11.5 -44v-62zM313 654q0 -23 -11 -42t-39 -19t-39 19t-11 42v62q0 26 11.5 44t38.5 18t38.5 -18t11.5 -44v-62zM507 558q0 24 11.5 37t38.5 13t38.5 -13t11.5 -37v-391q0 -36 -7.5 -64
t-33.5 -56q-25 -26 -53 -36.5t-63 -10.5h-180q-35 0 -63 10.5t-53 36.5q-26 28 -33.5 56t-7.5 64v391q0 24 11.5 37t38.5 13t38.5 -13t11.5 -37v-383q0 -18 0.5 -33.5t14.5 -28.5q13 -12 29.5 -12.5t32.5 -0.5h140q16 0 32.5 0.5t29.5 12.5q14 13 14.5 28.5t0.5 33.5v383z
" />
    <glyph glyph-name="Ugrave" unicode="&#xd9;" 
d="M444 733q11 -5 17.5 -14.5t6.5 -20.5q0 -20 -11 -36t-27 -16q-5 0 -9.5 1t-9.5 3l-202 69q-15 7 -19.5 17.5t-4.5 24.5q0 21 15 39t35 18q5 0 10.5 -1t11.5 -4zM507 558q0 24 11.5 37t38.5 13t38.5 -13t11.5 -37v-391q0 -36 -7.5 -64t-33.5 -56q-25 -26 -53 -36.5
t-63 -10.5h-180q-35 0 -63 10.5t-53 36.5q-26 28 -33.5 56t-7.5 64v391q0 24 11.5 37t38.5 13t38.5 -13t11.5 -37v-383q0 -18 0.5 -33.5t14.5 -28.5q13 -12 29.5 -12.5t32.5 -0.5h140q16 0 32.5 0.5t29.5 12.5q14 13 14.5 28.5t0.5 33.5v383z" />
    <glyph glyph-name="Ydieresis" unicode="&#x178;" 
d="M527 716q0 -23 -11 -42t-39 -19t-39 19t-11 42v32q0 26 11.5 44t38.5 18t38.5 -18t11.5 -44v-32zM293 716q0 -23 -11 -42t-39 -19t-39 19t-11 42v32q0 26 11.5 44t38.5 18t38.5 -18t11.5 -44v-32zM410 50q0 -24 -11.5 -37t-38.5 -13t-38.5 13t-11.5 37v150l-197 256v102
q0 24 11.5 37t38.5 13t38.5 -13t11.5 -37v-68l147 -191l147 191v68q0 24 11.5 37t38.5 13t38.5 -13t11.5 -37v-102l-197 -256v-150z" />
    <glyph glyph-name="aacute" unicode="&#xe1;" 
d="M468 773q8 5 20 5q11 0 21 -6t17.5 -15t11.5 -20.5t3 -22.5q-2 -22 -21 -32l-191 -94q-10 -5 -18 -5q-19 0 -31.5 16.5t-12.5 34.5q0 10 4 19t15 15zM285 241q-10 0 -21 -1.5t-20.5 -6t-16 -13t-6.5 -21.5v-64q0 -12 6.5 -19.5t16 -12t20 -6t19.5 -1.5h106l106 55v21
q0 40 -14 54.5t-54 14.5h-142zM286 443q-11 0 -22.5 1.5t-21 6.5t-16 14.5t-6.5 25.5q0 15 6 24.5t15 15t21 7t24 1.5h132q37 0 66 -7.5t58 -35.5q14 -14 22 -26.5t12.5 -26t6.5 -28.5t2 -33l10 -326q1 -21 -10 -38.5t-35 -17.5q-19 0 -34.5 14t-14.5 34l-66 -34l-16 -8
t-12 -4.5t-12.5 -1.5h-18.5h-92q-32 0 -57.5 6t-51.5 28q-30 25 -40 52.5t-10 65.5v42q0 35 10 59t37 48q25 22 52.5 29t59.5 7h206v22q0 27 -3.5 43.5t-13 25.5t-26 12t-42.5 3h-119z" />
    <glyph glyph-name="acircumflex" unicode="&#xe2;" 
d="M314 762q20 16 46 16t46 -16l123 -97q19 -15 19 -35q0 -18 -13.5 -31.5t-32.5 -13.5q-13 0 -28 10l-114 81l-114 -81q-15 -10 -28 -10q-19 0 -32.5 13.5t-13.5 31.5q0 20 19 35zM285 241q-10 0 -21 -1.5t-20.5 -6t-16 -13t-6.5 -21.5v-64q0 -12 6.5 -19.5t16 -12t20 -6
t19.5 -1.5h106l106 55v21q0 40 -14 54.5t-54 14.5h-142zM286 443q-11 0 -22.5 1.5t-21 6.5t-16 14.5t-6.5 25.5q0 15 6 24.5t15 15t21 7t24 1.5h132q37 0 66 -7.5t58 -35.5q14 -14 22 -26.5t12.5 -26t6.5 -28.5t2 -33l10 -326q1 -21 -10 -38.5t-35 -17.5q-19 0 -34.5 14
t-14.5 34l-66 -34l-16 -8t-12 -4.5t-12.5 -1.5h-18.5h-92q-32 0 -57.5 6t-51.5 28q-30 25 -40 52.5t-10 65.5v42q0 35 10 59t37 48q25 22 52.5 29t59.5 7h206v22q0 27 -3.5 43.5t-13 25.5t-26 12t-42.5 3h-119z" />
    <glyph glyph-name="adieresis" unicode="&#xe4;" 
d="M534 654q0 -23 -11 -42t-39 -19t-39 19t-11 42v62q0 26 11.5 44t38.5 18t38.5 -18t11.5 -44v-62zM279 654q0 -23 -11 -42t-39 -19t-39 19t-11 42v62q0 26 11.5 44t38.5 18t38.5 -18t11.5 -44v-62zM285 241q-10 0 -21 -1.5t-20.5 -6t-16 -13t-6.5 -21.5v-64
q0 -12 6.5 -19.5t16 -12t20 -6t19.5 -1.5h106l106 55v21q0 40 -14 54.5t-54 14.5h-142zM286 443q-11 0 -22.5 1.5t-21 6.5t-16 14.5t-6.5 25.5q0 15 6 24.5t15 15t21 7t24 1.5h132q37 0 66 -7.5t58 -35.5q14 -14 22 -26.5t12.5 -26t6.5 -28.5t2 -33l10 -326q1 -21 -10 -38.5
t-35 -17.5q-19 0 -34.5 14t-14.5 34l-66 -34l-16 -8t-12 -4.5t-12.5 -1.5h-18.5h-92q-32 0 -57.5 6t-51.5 28q-30 25 -40 52.5t-10 65.5v42q0 35 10 59t37 48q25 22 52.5 29t59.5 7h206v22q0 27 -3.5 43.5t-13 25.5t-26 12t-42.5 3h-119z" />
    <glyph glyph-name="agrave" unicode="&#xe0;" 
d="M434 668q11 -6 15 -15t4 -19q0 -18 -12.5 -34.5t-31.5 -16.5q-8 0 -18 5l-191 94q-19 10 -21 32q-1 11 3 22.5t11.5 20.5t17.5 15t21 6q12 0 20 -5zM285 241q-10 0 -21 -1.5t-20.5 -6t-16 -13t-6.5 -21.5v-64q0 -12 6.5 -19.5t16 -12t20 -6t19.5 -1.5h106l106 55v21
q0 40 -14 54.5t-54 14.5h-142zM286 443q-11 0 -22.5 1.5t-21 6.5t-16 14.5t-6.5 25.5q0 15 6 24.5t15 15t21 7t24 1.5h132q37 0 66 -7.5t58 -35.5q14 -14 22 -26.5t12.5 -26t6.5 -28.5t2 -33l10 -326q1 -21 -10 -38.5t-35 -17.5q-19 0 -34.5 14t-14.5 34l-66 -34l-16 -8
t-12 -4.5t-12.5 -1.5h-18.5h-92q-32 0 -57.5 6t-51.5 28q-30 25 -40 52.5t-10 65.5v42q0 35 10 59t37 48q25 22 52.5 29t59.5 7h206v22q0 27 -3.5 43.5t-13 25.5t-26 12t-42.5 3h-119z" />
    <glyph glyph-name="aring" unicode="&#xe5;" 
d="M436 689h-146v-65h146v65zM532 644q0 -109 -112 -109h-114q-112 0 -112 109v25q0 109 112 109h114q112 0 112 -109v-25zM285 215q-10 0 -21 -1.5t-20.5 -6t-16 -13t-6.5 -21.5v-38q0 -12 6.5 -19.5t16 -12t20 -6t19.5 -1.5h106l106 55v9q0 33 -14 44t-54 11h-142z
M286 398q-11 0 -22.5 1.5t-21 6.5t-16 14.5t-6.5 25.5q0 15 6 24.5t15 15t21 7t24 1.5h132q37 0 66 -7.5t58 -35.5q14 -14 22 -26.5t12.5 -26t6.5 -28.5t2 -33l10 -281q1 -21 -10 -38.5t-35 -17.5q-19 0 -34.5 14t-14.5 34l-66 -34l-16 -8t-12 -4.5t-12.5 -1.5h-18.5h-92
q-32 0 -57.5 6t-51.5 28q-30 25 -40 52.5t-10 65.5v16q0 35 10 59t37 48q25 22 52.5 29t59.5 7h206v32q0 27 -16.5 41t-68.5 14h-119z" />
    <glyph glyph-name="atilde" unicode="&#xe3;" 
d="M467 722l8 22q8 21 19 29.5t25 8.5q19 0 34.5 -11.5t15.5 -32.5q0 -11 -3 -21l-17 -56q-13 -39 -48 -39q-5 0 -12 1t-11 2l-225 47l-8 -22q-8 -21 -19 -29.5t-25 -8.5q-19 0 -34.5 11.5t-15.5 32.5q0 10 3 21l17 56q13 39 48 39q5 0 12 -1t11 -2zM285 241q-10 0 -21 -1.5
t-20.5 -6t-16 -13t-6.5 -21.5v-64q0 -12 6.5 -19.5t16 -12t20 -6t19.5 -1.5h106l106 55v21q0 40 -14 54.5t-54 14.5h-142zM286 443q-11 0 -22.5 1.5t-21 6.5t-16 14.5t-6.5 25.5q0 15 6 24.5t15 15t21 7t24 1.5h132q37 0 66 -7.5t58 -35.5q14 -14 22 -26.5t12.5 -26
t6.5 -28.5t2 -33l10 -326q1 -21 -10 -38.5t-35 -17.5q-19 0 -34.5 14t-14.5 34l-66 -34l-16 -8t-12 -4.5t-12.5 -1.5h-18.5h-92q-32 0 -57.5 6t-51.5 28q-30 25 -40 52.5t-10 65.5v42q0 35 10 59t37 48q25 22 52.5 29t59.5 7h206v22q0 27 -3.5 43.5t-13 25.5t-26 12t-42.5 3
h-119z" />
    <glyph glyph-name="ccedilla" unicode="&#xe7;" 
d="M125 316q0 22 2.5 39t9 31.5t17.5 28t28 27.5l71 59q17 14 30.5 21.5t27.5 11.5t29.5 4.5t36.5 0.5h152q12 0 24 -1.5t21 -7t15 -15t6 -24.5q0 -16 -6.5 -25.5t-16 -14.5t-21.5 -6.5t-22 -1.5h-169q-14 0 -28 -6.5t-27 -17.5l-58 -49q-11 -9 -18.5 -18t-7.5 -23v-119
q0 -14 7.5 -23t18.5 -18l58 -49q13 -11 27 -17.5t28 -6.5h169q10 0 22 -1.5t21.5 -6.5t16 -14.5t6.5 -25.5q0 -15 -6 -24.5t-15 -15t-21 -7t-24 -1.5h-60v-144q0 -31 -17 -45.5t-47 -14.5h-115q-50 0 -50 47q0 46 50 46h86v111q-21 0 -36.5 0.5t-29 4.5t-27.5 11.5t-30 21.5
l-71 59q-17 14 -28 27.5t-17.5 28t-9 31.5t-2.5 39v93z" />
    <glyph glyph-name="eacute" unicode="&#xe9;" 
d="M468 773q8 5 20 5q11 0 21 -6t17.5 -15t11.5 -20.5t3 -22.5q-2 -22 -21 -32l-191 -94q-10 -5 -18 -5q-19 0 -31.5 16.5t-12.5 34.5q0 10 4 19t15 15zM221 296h278v58q0 14 -1 25t-11 20l-37 32q-9 8 -22 10t-24 2h-81q-14 0 -25.5 -1.5t-23.5 -9.5l-33 -24
q-9 -7 -14.5 -15t-5.5 -29v-68zM301 0q-15 0 -26 0.5t-20.5 3t-19 7.5t-20.5 15l-41 36q-14 13 -23.5 24t-15 23t-8 26.5t-2.5 34.5v185q0 19 1.5 34.5t7 29t14.5 26t24 25.5l34 29q17 15 30 23t25 11.5t24 4.5t27 1h88q18 0 31.5 -1.5t25.5 -5t23.5 -10.5t25.5 -18l39 -31
q33 -26 41.5 -55.5t8.5 -69.5v-77q0 -21 -2.5 -34.5t-9.5 -21.5t-20 -11.5t-34 -3.5h-308v-32q0 -7 4.5 -15t9.5 -13l24 -26q10 -11 25 -14.5t39 -3.5h206q12 0 24 -1.5t21 -7t15 -15t6 -24.5q0 -16 -6.5 -25.5t-16 -14.5t-21.5 -6.5t-22 -1.5h-228z" />
    <glyph glyph-name="ecircumflex" unicode="&#xea;" 
d="M314 762q20 16 46 16t46 -16l123 -97q19 -15 19 -35q0 -18 -13.5 -31.5t-32.5 -13.5q-13 0 -28 10l-114 81l-114 -81q-15 -10 -28 -10q-19 0 -32.5 13.5t-13.5 31.5q0 20 19 35zM221 296h278v58q0 14 -1 25t-11 20l-37 32q-9 8 -22 10t-24 2h-81q-14 0 -25.5 -1.5
t-23.5 -9.5l-33 -24q-9 -7 -14.5 -15t-5.5 -29v-68zM301 0q-15 0 -26 0.5t-20.5 3t-19 7.5t-20.5 15l-41 36q-14 13 -23.5 24t-15 23t-8 26.5t-2.5 34.5v185q0 19 1.5 34.5t7 29t14.5 26t24 25.5l34 29q17 15 30 23t25 11.5t24 4.5t27 1h88q18 0 31.5 -1.5t25.5 -5
t23.5 -10.5t25.5 -18l39 -31q33 -26 41.5 -55.5t8.5 -69.5v-77q0 -21 -2.5 -34.5t-9.5 -21.5t-20 -11.5t-34 -3.5h-308v-32q0 -7 4.5 -15t9.5 -13l24 -26q10 -11 25 -14.5t39 -3.5h206q12 0 24 -1.5t21 -7t15 -15t6 -24.5q0 -16 -6.5 -25.5t-16 -14.5t-21.5 -6.5t-22 -1.5
h-228z" />
    <glyph glyph-name="edieresis" unicode="&#xeb;" 
d="M534 654q0 -23 -11 -42t-39 -19t-39 19t-11 42v62q0 26 11.5 44t38.5 18t38.5 -18t11.5 -44v-62zM279 654q0 -23 -11 -42t-39 -19t-39 19t-11 42v62q0 26 11.5 44t38.5 18t38.5 -18t11.5 -44v-62zM221 296h278v58q0 14 -1 25t-11 20l-37 32q-9 8 -22 10t-24 2h-81
q-14 0 -25.5 -1.5t-23.5 -9.5l-33 -24q-9 -7 -14.5 -15t-5.5 -29v-68zM301 0q-15 0 -26 0.5t-20.5 3t-19 7.5t-20.5 15l-41 36q-14 13 -23.5 24t-15 23t-8 26.5t-2.5 34.5v185q0 19 1.5 34.5t7 29t14.5 26t24 25.5l34 29q17 15 30 23t25 11.5t24 4.5t27 1h88q18 0 31.5 -1.5
t25.5 -5t23.5 -10.5t25.5 -18l39 -31q33 -26 41.5 -55.5t8.5 -69.5v-77q0 -21 -2.5 -34.5t-9.5 -21.5t-20 -11.5t-34 -3.5h-308v-32q0 -7 4.5 -15t9.5 -13l24 -26q10 -11 25 -14.5t39 -3.5h206q12 0 24 -1.5t21 -7t15 -15t6 -24.5q0 -16 -6.5 -25.5t-16 -14.5t-21.5 -6.5
t-22 -1.5h-228z" />
    <glyph glyph-name="egrave" unicode="&#xe8;" 
d="M434 668q11 -6 15 -15t4 -19q0 -18 -12.5 -34.5t-31.5 -16.5q-8 0 -18 5l-191 94q-19 10 -21 32q-1 11 3 22.5t11.5 20.5t17.5 15t21 6q12 0 20 -5zM221 296h278v58q0 14 -1 25t-11 20l-37 32q-9 8 -22 10t-24 2h-81q-14 0 -25.5 -1.5t-23.5 -9.5l-33 -24
q-9 -7 -14.5 -15t-5.5 -29v-68zM301 0q-15 0 -26 0.5t-20.5 3t-19 7.5t-20.5 15l-41 36q-14 13 -23.5 24t-15 23t-8 26.5t-2.5 34.5v185q0 19 1.5 34.5t7 29t14.5 26t24 25.5l34 29q17 15 30 23t25 11.5t24 4.5t27 1h88q18 0 31.5 -1.5t25.5 -5t23.5 -10.5t25.5 -18l39 -31
q33 -26 41.5 -55.5t8.5 -69.5v-77q0 -21 -2.5 -34.5t-9.5 -21.5t-20 -11.5t-34 -3.5h-308v-32q0 -7 4.5 -15t9.5 -13l24 -26q10 -11 25 -14.5t39 -3.5h206q12 0 24 -1.5t21 -7t15 -15t6 -24.5q0 -16 -6.5 -25.5t-16 -14.5t-21.5 -6.5t-22 -1.5h-228z" />
    <glyph glyph-name="iacute" unicode="&#xed;" 
d="M424 773q8 5 20 5q11 0 21 -6t17.5 -15t11.5 -20.5t3 -22.5q-2 -22 -21 -32l-191 -94q-10 -5 -18 -5q-19 0 -31.5 16.5t-12.5 34.5q0 10 4 19t15 15zM410 96h72q12 0 24 -1.5t21 -7t15 -15t6 -24.5q0 -16 -6.5 -25.5t-16 -14.5t-21.5 -6.5t-22 -1.5h-244q-11 0 -22.5 1.5
t-21 6.5t-16 14.5t-6.5 25.5q0 15 6 24.5t15 15t21 7t24 1.5h76v347h-76q-11 0 -22.5 1.5t-21 6.5t-16 14.5t-6.5 25.5q0 15 6 24.5t15 15t21 7t24 1.5h101q21 0 34.5 -2.5t21.5 -9.5t11.5 -20.5t3.5 -34.5v-376z" />
    <glyph glyph-name="icircumflex" unicode="&#xee;" 
d="M288 762q20 16 46 16t46 -16l123 -97q19 -15 19 -35q0 -18 -13.5 -31.5t-32.5 -13.5q-13 0 -28 10l-114 81l-114 -81q-15 -10 -28 -10q-19 0 -32.5 13.5t-13.5 31.5q0 20 19 35zM410 96h72q12 0 24 -1.5t21 -7t15 -15t6 -24.5q0 -16 -6.5 -25.5t-16 -14.5t-21.5 -6.5
t-22 -1.5h-244q-11 0 -22.5 1.5t-21 6.5t-16 14.5t-6.5 25.5q0 15 6 24.5t15 15t21 7t24 1.5h76v347h-76q-11 0 -22.5 1.5t-21 6.5t-16 14.5t-6.5 25.5q0 15 6 24.5t15 15t21 7t24 1.5h101q21 0 34.5 -2.5t21.5 -9.5t11.5 -20.5t3.5 -34.5v-376z" />
    <glyph glyph-name="idieresis" unicode="&#xef;" 
d="M517 654q0 -23 -11 -42t-39 -19t-39 19t-11 42v62q0 26 11.5 44t38.5 18t38.5 -18t11.5 -44v-62zM262 654q0 -23 -11 -42t-39 -19t-39 19t-11 42v62q0 26 11.5 44t38.5 18t38.5 -18t11.5 -44v-62zM410 96h72q12 0 24 -1.5t21 -7t15 -15t6 -24.5q0 -16 -6.5 -25.5
t-16 -14.5t-21.5 -6.5t-22 -1.5h-244q-11 0 -22.5 1.5t-21 6.5t-16 14.5t-6.5 25.5q0 15 6 24.5t15 15t21 7t24 1.5h76v347h-76q-11 0 -22.5 1.5t-21 6.5t-16 14.5t-6.5 25.5q0 15 6 24.5t15 15t21 7t24 1.5h101q21 0 34.5 -2.5t21.5 -9.5t11.5 -20.5t3.5 -34.5v-376z" />
    <glyph glyph-name="igrave" unicode="&#xec;" 
d="M422 668q11 -6 15 -15t4 -19q0 -18 -12.5 -34.5t-31.5 -16.5q-8 0 -18 5l-191 94q-19 10 -21 32q-1 11 3 22.5t11.5 20.5t17.5 15t21 6q12 0 20 -5zM410 96h72q12 0 24 -1.5t21 -7t15 -15t6 -24.5q0 -16 -6.5 -25.5t-16 -14.5t-21.5 -6.5t-22 -1.5h-244q-11 0 -22.5 1.5
t-21 6.5t-16 14.5t-6.5 25.5q0 15 6 24.5t15 15t21 7t24 1.5h76v347h-76q-11 0 -22.5 1.5t-21 6.5t-16 14.5t-6.5 25.5q0 15 6 24.5t15 15t21 7t24 1.5h101q21 0 34.5 -2.5t21.5 -9.5t11.5 -20.5t3.5 -34.5v-376z" />
    <glyph glyph-name="ntilde" unicode="&#xf1;" 
d="M467 722l8 22q8 21 19 29.5t25 8.5q19 0 34.5 -11.5t15.5 -32.5q0 -11 -3 -21l-17 -56q-13 -39 -48 -39q-5 0 -12 1t-11 2l-225 47l-8 -22q-8 -21 -19 -29.5t-25 -8.5q-19 0 -34.5 11.5t-15.5 32.5q0 10 3 21l17 56q13 39 48 39q5 0 12 -1t11 -2zM221 345v-279
q0 -12 -1.5 -24t-7 -21.5t-15 -15t-24.5 -5.5t-24.5 5.5t-15 15t-7 21.5t-1.5 24v402q0 13 1.5 26t6 23t14 16t26.5 6q16 0 25.5 -6t14.5 -16t6.5 -22.5t1.5 -25.5v-11v-2l78 51q19 12 39.5 22t43.5 10h71q28 0 47.5 -8t41.5 -27q16 -14 24.5 -28.5t12.5 -30.5t4.5 -34
t1.5 -37l10 -302q0 -13 -1 -25.5t-6 -23t-14.5 -17t-25.5 -6.5q-15 0 -24 5.5t-14.5 15t-7.5 21t-2 23.5l-10 296q-1 22 -3 37.5t-8.5 25.5t-19 14.5t-34.5 4.5h-32q-15 0 -30 -9z" />
    <glyph glyph-name="oacute" unicode="&#xf3;" 
d="M468 773q8 5 20 5q11 0 21 -6t17.5 -15t11.5 -20.5t3 -22.5q-2 -22 -21 -32l-191 -94q-10 -5 -18 -5q-19 0 -31.5 16.5t-12.5 34.5q0 10 4 19t15 15zM221 179q0 -15 7 -27t28 -30q16 -14 29.5 -20t36.5 -6h76q23 0 36.5 6t29.5 20q21 18 28 30t7 27v181q0 15 -7 27
t-28 30q-16 14 -29.5 20t-36.5 6h-76q-23 0 -36.5 -6t-29.5 -20q-21 -18 -28 -30t-7 -27v-181zM125 360q0 24 3 41t9.5 31t18.5 26t30 27t32 25t28.5 16.5t32.5 9.5t43 3h76q25 0 43 -3t32.5 -9.5t28.5 -16.5t32 -25t30 -27t18.5 -26t9.5 -31t3 -41v-181q0 -24 -3.5 -41
t-11 -31.5t-20 -27.5t-31.5 -29t-33 -25.5t-28.5 -15t-30.5 -7.5t-39 -2h-76q-23 0 -39 2t-30.5 7.5t-28.5 15t-33 25.5t-31.5 29t-20 27.5t-11 31.5t-3.5 41v181z" />
    <glyph glyph-name="ocircumflex" unicode="&#xf4;" 
d="M314 762q20 16 46 16t46 -16l123 -97q19 -15 19 -35q0 -18 -13.5 -31.5t-32.5 -13.5q-13 0 -28 10l-114 81l-114 -81q-15 -10 -28 -10q-19 0 -32.5 13.5t-13.5 31.5q0 20 19 35zM221 179q0 -15 7 -27t28 -30q16 -14 29.5 -20t36.5 -6h76q23 0 36.5 6t29.5 20q21 18 28 30
t7 27v181q0 15 -7 27t-28 30q-16 14 -29.5 20t-36.5 6h-76q-23 0 -36.5 -6t-29.5 -20q-21 -18 -28 -30t-7 -27v-181zM125 360q0 24 3 41t9.5 31t18.5 26t30 27t32 25t28.5 16.5t32.5 9.5t43 3h76q25 0 43 -3t32.5 -9.5t28.5 -16.5t32 -25t30 -27t18.5 -26t9.5 -31t3 -41
v-181q0 -24 -3.5 -41t-11 -31.5t-20 -27.5t-31.5 -29t-33 -25.5t-28.5 -15t-30.5 -7.5t-39 -2h-76q-23 0 -39 2t-30.5 7.5t-28.5 15t-33 25.5t-31.5 29t-20 27.5t-11 31.5t-3.5 41v181z" />
    <glyph glyph-name="odieresis" unicode="&#xf6;" 
d="M534 654q0 -23 -11 -42t-39 -19t-39 19t-11 42v62q0 26 11.5 44t38.5 18t38.5 -18t11.5 -44v-62zM279 654q0 -23 -11 -42t-39 -19t-39 19t-11 42v62q0 26 11.5 44t38.5 18t38.5 -18t11.5 -44v-62zM221 179q0 -15 7 -27t28 -30q16 -14 29.5 -20t36.5 -6h76q23 0 36.5 6
t29.5 20q21 18 28 30t7 27v181q0 15 -7 27t-28 30q-16 14 -29.5 20t-36.5 6h-76q-23 0 -36.5 -6t-29.5 -20q-21 -18 -28 -30t-7 -27v-181zM125 360q0 24 3 41t9.5 31t18.5 26t30 27t32 25t28.5 16.5t32.5 9.5t43 3h76q25 0 43 -3t32.5 -9.5t28.5 -16.5t32 -25t30 -27
t18.5 -26t9.5 -31t3 -41v-181q0 -24 -3.5 -41t-11 -31.5t-20 -27.5t-31.5 -29t-33 -25.5t-28.5 -15t-30.5 -7.5t-39 -2h-76q-23 0 -39 2t-30.5 7.5t-28.5 15t-33 25.5t-31.5 29t-20 27.5t-11 31.5t-3.5 41v181z" />
    <glyph glyph-name="ograve" unicode="&#xf2;" 
d="M434 668q11 -6 15 -15t4 -19q0 -18 -12.5 -34.5t-31.5 -16.5q-8 0 -18 5l-191 94q-19 10 -21 32q-1 11 3 22.5t11.5 20.5t17.5 15t21 6q12 0 20 -5zM221 179q0 -15 7 -27t28 -30q16 -14 29.5 -20t36.5 -6h76q23 0 36.5 6t29.5 20q21 18 28 30t7 27v181q0 15 -7 27t-28 30
q-16 14 -29.5 20t-36.5 6h-76q-23 0 -36.5 -6t-29.5 -20q-21 -18 -28 -30t-7 -27v-181zM125 360q0 24 3 41t9.5 31t18.5 26t30 27t32 25t28.5 16.5t32.5 9.5t43 3h76q25 0 43 -3t32.5 -9.5t28.5 -16.5t32 -25t30 -27t18.5 -26t9.5 -31t3 -41v-181q0 -24 -3.5 -41t-11 -31.5
t-20 -27.5t-31.5 -29t-33 -25.5t-28.5 -15t-30.5 -7.5t-39 -2h-76q-23 0 -39 2t-30.5 7.5t-28.5 15t-33 25.5t-31.5 29t-20 27.5t-11 31.5t-3.5 41v181z" />
    <glyph glyph-name="otilde" unicode="&#xf5;" 
d="M467 722l8 22q8 21 19 29.5t25 8.5q19 0 34.5 -11.5t15.5 -32.5q0 -11 -3 -21l-17 -56q-13 -39 -48 -39q-5 0 -12 1t-11 2l-225 47l-8 -22q-8 -21 -19 -29.5t-25 -8.5q-19 0 -34.5 11.5t-15.5 32.5q0 10 3 21l17 56q13 39 48 39q5 0 12 -1t11 -2zM221 179q0 -15 7 -27
t28 -30q16 -14 29.5 -20t36.5 -6h76q23 0 36.5 6t29.5 20q21 18 28 30t7 27v181q0 15 -7 27t-28 30q-16 14 -29.5 20t-36.5 6h-76q-23 0 -36.5 -6t-29.5 -20q-21 -18 -28 -30t-7 -27v-181zM125 360q0 24 3 41t9.5 31t18.5 26t30 27t32 25t28.5 16.5t32.5 9.5t43 3h76
q25 0 43 -3t32.5 -9.5t28.5 -16.5t32 -25t30 -27t18.5 -26t9.5 -31t3 -41v-181q0 -24 -3.5 -41t-11 -31.5t-20 -27.5t-31.5 -29t-33 -25.5t-28.5 -15t-30.5 -7.5t-39 -2h-76q-23 0 -39 2t-30.5 7.5t-28.5 15t-33 25.5t-31.5 29t-20 27.5t-11 31.5t-3.5 41v181z" />
    <glyph glyph-name="uacute" unicode="&#xfa;" 
d="M468 773q8 5 20 5q11 0 21 -6t17.5 -15t11.5 -20.5t3 -22.5q-2 -22 -21 -32l-191 -94q-10 -5 -18 -5q-19 0 -31.5 16.5t-12.5 34.5q0 10 4 19t15 15zM595 71v-20.5t-4 -23.5t-14 -19t-29 -8q-15 0 -24.5 6t-15 15.5t-7 21.5t-1.5 24v16l-78 -51q-23 -15 -43 -23.5
t-40 -8.5h-71q-20 0 -42.5 7.5t-46.5 27.5q-16 14 -24.5 28.5t-12.5 30.5t-5 33.5t-2 37.5l-10 302q0 13 1 26t6 23t14.5 16.5t26.5 6.5q15 0 24.5 -6t14 -15.5t6.5 -21t2 -23.5l10 -295q1 -17 2.5 -34t7.5 -28t22.5 -15.5t33.5 -4.5h32q16 0 30 9l141 89v279q0 12 1.5 24
t7 21.5t15 15t24.5 5.5t24.5 -5.5t15 -15t7 -21.5t1.5 -24v-402z" />
    <glyph glyph-name="ucircumflex" unicode="&#xfb;" 
d="M314 762q20 16 46 16t46 -16l123 -97q19 -15 19 -35q0 -18 -13.5 -31.5t-32.5 -13.5q-13 0 -28 10l-114 81l-114 -81q-15 -10 -28 -10q-19 0 -32.5 13.5t-13.5 31.5q0 20 19 35zM595 71v-20.5t-4 -23.5t-14 -19t-29 -8q-15 0 -24.5 6t-15 15.5t-7 21.5t-1.5 24v16
l-78 -51q-23 -15 -43 -23.5t-40 -8.5h-71q-20 0 -42.5 7.5t-46.5 27.5q-16 14 -24.5 28.5t-12.5 30.5t-5 33.5t-2 37.5l-10 302q0 13 1 26t6 23t14.5 16.5t26.5 6.5q15 0 24.5 -6t14 -15.5t6.5 -21t2 -23.5l10 -295q1 -17 2.5 -34t7.5 -28t22.5 -15.5t33.5 -4.5h32
q16 0 30 9l141 89v279q0 12 1.5 24t7 21.5t15 15t24.5 5.5t24.5 -5.5t15 -15t7 -21.5t1.5 -24v-402z" />
    <glyph glyph-name="udieresis" unicode="&#xfc;" 
d="M534 654q0 -23 -11 -42t-39 -19t-39 19t-11 42v62q0 26 11.5 44t38.5 18t38.5 -18t11.5 -44v-62zM279 654q0 -23 -11 -42t-39 -19t-39 19t-11 42v62q0 26 11.5 44t38.5 18t38.5 -18t11.5 -44v-62zM595 71v-20.5t-4 -23.5t-14 -19t-29 -8q-15 0 -24.5 6t-15 15.5t-7 21.5
t-1.5 24v16l-78 -51q-23 -15 -43 -23.5t-40 -8.5h-71q-20 0 -42.5 7.5t-46.5 27.5q-16 14 -24.5 28.5t-12.5 30.5t-5 33.5t-2 37.5l-10 302q0 13 1 26t6 23t14.5 16.5t26.5 6.5q15 0 24.5 -6t14 -15.5t6.5 -21t2 -23.5l10 -295q1 -17 2.5 -34t7.5 -28t22.5 -15.5t33.5 -4.5
h32q16 0 30 9l141 89v279q0 12 1.5 24t7 21.5t15 15t24.5 5.5t24.5 -5.5t15 -15t7 -21.5t1.5 -24v-402z" />
    <glyph glyph-name="ugrave" unicode="&#xf9;" 
d="M434 668q11 -6 15 -15t4 -19q0 -18 -12.5 -34.5t-31.5 -16.5q-8 0 -18 5l-191 94q-19 10 -21 32q-1 11 3 22.5t11.5 20.5t17.5 15t21 6q12 0 20 -5zM595 71v-20.5t-4 -23.5t-14 -19t-29 -8q-15 0 -24.5 6t-15 15.5t-7 21.5t-1.5 24v16l-78 -51q-23 -15 -43 -23.5
t-40 -8.5h-71q-20 0 -42.5 7.5t-46.5 27.5q-16 14 -24.5 28.5t-12.5 30.5t-5 33.5t-2 37.5l-10 302q0 13 1 26t6 23t14.5 16.5t26.5 6.5q15 0 24.5 -6t14 -15.5t6.5 -21t2 -23.5l10 -295q1 -17 2.5 -34t7.5 -28t22.5 -15.5t33.5 -4.5h32q16 0 30 9l141 89v279q0 12 1.5 24
t7 21.5t15 15t24.5 5.5t24.5 -5.5t15 -15t7 -21.5t1.5 -24v-402z" />
    <glyph glyph-name="ydieresis" unicode="&#xff;" 
d="M534 654q0 -23 -11 -42t-39 -19t-39 19t-11 42v62q0 26 11.5 44t38.5 18t38.5 -18t11.5 -44v-62zM279 654q0 -23 -11 -42t-39 -19t-39 19t-11 42v62q0 26 11.5 44t38.5 18t38.5 -18t11.5 -44v-62zM499 418v55q0 12 1.5 24t7 21.5t15 15t24.5 5.5t24.5 -5.5t15 -15
t7 -21.5t1.5 -24v-39q0 -18 -2 -31.5t-10 -29.5l-242 -527q-8 -17 -14.5 -27t-15 -15t-19.5 -6.5t-27 -1.5h-74q-11 0 -22.5 1.5t-21 6.5t-16 14.5t-6.5 25.5q0 15 6 24.5t15 15t21 7t24 1.5h66l71 147h-5q-15 0 -23.5 3.5t-14 10t-9.5 16t-10 21.5l-118 261
q-10 22 -16.5 40t-6.5 39v43q0 12 1.5 24t7 21.5t15 15t24.5 5.5t24.5 -5.5t15 -15t7 -21.5t1.5 -24v-55l129 -283h21z" />
    <glyph glyph-name="lozenge" unicode="&#x25ca;" 
d="M360 0q-23 0 -42 14t-39 56l-124 262q-13 28 -13 57t13 57l124 262q20 42 39 56t42 14t42 -14t39 -56l124 -262q13 -28 13 -57t-13 -57l-124 -262q-20 -42 -39 -56t-42 -14zM470 364q6 13 6 25q0 11 -6 25l-106 230h-8l-106 -230q-6 -14 -6 -25q0 -12 6 -25l106 -230h8z
" />
    <glyph glyph-name="Omega" unicode="&#x2126;" 
d="M597 100q22 0 32.5 -16t10.5 -35t-10.5 -34t-32.5 -15h-122q-26 0 -45 10.5t-28.5 28.5t-8.5 42.5t13 52.5l83 183q8 19 13 33.5t5 35.5q0 23 -5.5 39.5t-15.5 36.5l-92 186q-10 20 -16.5 25t-17.5 5t-17.5 -5t-16.5 -25l-92 -186q-10 -20 -15.5 -36.5t-5.5 -39.5
q0 -21 5 -35.5t13 -33.5l83 -183q12 -28 13 -52.5t-8.5 -42.5t-28.5 -28.5t-45 -10.5h-122q-22 0 -32.5 15t-10.5 34t10.5 35t32.5 16h97l-81 181q-12 26 -19 51t-7 54q0 33 6.5 57t21.5 54l98 197q20 41 51 62.5t70 21.5t70 -21.5t51 -62.5l98 -197q15 -30 21.5 -54
t6.5 -57q0 -29 -7 -54t-19 -51l-81 -181h97z" />
    <glyph glyph-name="partialdiff" unicode="&#x2202;" 
d="M253 196l58 -86l193 216l-57 87zM251 703q-10 15 -9.5 28.5t7.5 24t18.5 16.5t24.5 6q11 0 21 -5.5t18 -16.5l242 -361q28 -41 28 -70q0 -19 -9.5 -37t-28.5 -39l-193 -217q-14 -15 -30 -23.5t-33 -8.5q-34 0 -56 32l-80 115q-17 25 -17 51q0 33 28 64l209 232z" />
    <glyph glyph-name="Delta" unicode="&#x2206;" 
d="M361 541h-2l-126 -441h253zM161 0q-21 0 -37 16t-11 34l196 677q6 20 16.5 35.5t34.5 15.5q25 0 36 -15.5t16 -35.5l193 -677q5 -18 -11 -34t-37 -16h-396z" />
    <glyph glyph-name="product" unicode="&#x220f;" 
d="M536 -67q0 -24 -11.5 -37t-38.5 -13t-38.5 13t-11.5 37v745h-152v-745q0 -24 -11.5 -37t-38.5 -13t-38.5 13t-11.5 37v745h-46q-20 0 -35 11.5t-15 38.5t15 38.5t35 11.5h444q20 0 35 -11.5t15 -38.5t-15 -38.5t-35 -11.5h-46v-745z" />
    <glyph glyph-name="summation" unicode="&#x2211;" 
d="M191 653q-17 28 -17 53q0 30 21 51t62 21h257q8 0 17 -2.5t16.5 -8.5t12 -15.5t4.5 -23.5q0 -27 -16.5 -38.5t-33.5 -11.5h-222l173 -277q11 -17 16 -30.5t5 -25.5t-5 -24.5t-14 -28.5l-175 -309h222q17 0 33.5 -11.5t16.5 -38.5q0 -14 -4.5 -23.5t-12 -15.5t-16.5 -8.5
t-17 -2.5h-257q-39 0 -60 21.5t-21 51.5q0 24 13 46l193 342z" />
    <glyph glyph-name="radical" unicode="&#x221a;" 
d="M181 314q18 6 34 6q26 0 47.5 -15t29.5 -38l87 -282h7l135 759q3 17 16 25.5t29 8.5q20 0 36.5 -14t13.5 -37l-141 -782q-6 -27 -29.5 -45t-59.5 -18q-37 0 -60.5 14t-33.5 49l-88 275l-77 -26q-13 -4 -24 -0.5t-19 11.5t-12.5 19t-4.5 22t7 21.5t18 15.5z" />
    <glyph glyph-name="infinity" unicode="&#x221e;" 
d="M406 520q30 36 80 36h77q32 0 52.5 -19.5t20.5 -49.5v-196q0 -30 -20.5 -49.5t-52.5 -19.5h-77q-50 0 -80 36l-46 56l-46 -56q-30 -36 -80 -36h-77q-32 0 -52.5 19.5t-20.5 49.5v196q0 30 20.5 49.5t52.5 19.5h77q50 0 80 -36l46 -56zM305 389l-61 73h-64v-146h64z
M476 316h64v146h-64l-61 -73z" />
    <glyph glyph-name="integral" unicode="&#x222b;" 
d="M435 76v-155q0 -60 -29.5 -92.5t-86.5 -32.5h-58q-24 0 -36 15.5t-12 34.5t12 34.5t36 15.5h39q20 0 27.5 10.5t7.5 23.5v137l-62 431v155q0 60 29.5 92.5t86.5 32.5h58q24 0 36 -15.5t12 -34.5t-12 -34.5t-36 -15.5h-39q-20 0 -27.5 -10.5t-7.5 -23.5v-137z" />
    <glyph glyph-name="approxequal" unicode="&#x2248;" 
d="M327 215q-31 -19 -58 -19q-14 0 -27.5 4t-25.5 9l-88 39q-15 7 -22 18t-7 24q0 20 13.5 37t35.5 17q12 0 21 -4l103 -47l121 77q15 11 29.5 15t28.5 4q27 0 53 -13l88 -39q15 -7 22 -18t7 -24q0 -20 -13.5 -37t-35.5 -17q-12 0 -21 4l-103 47zM327 427q-31 -19 -58 -19
q-14 0 -27.5 4t-25.5 9l-88 39q-15 7 -22 18t-7 24q0 20 13.5 37t35.5 17q12 0 21 -4l103 -47l121 77q15 11 29.5 15t28.5 4q27 0 53 -13l88 -39q15 -7 22 -18t7 -24q0 -20 -13.5 -37t-35.5 -17q-12 0 -21 4l-103 47z" />
    <glyph glyph-name="notequal" unicode="&#x2260;" 
d="M442 465l-60 -112h175q20 0 35 -11.5t15 -38.5t-15 -38.5t-35 -11.5h-229l-55 -102q-9 -17 -21.5 -24.5t-25.5 -7.5q-19 0 -33 13t-14 33q0 16 8 29l32 59h-56q-20 0 -35 11.5t-15 38.5t15 38.5t35 11.5h110l60 112h-170q-20 0 -35 11.5t-15 38.5t15 38.5t35 11.5h223
l55 101q9 17 21 24t25 7q19 0 33.5 -13t14.5 -33q0 -12 -8 -28l-31 -58h61q20 0 35 -11.5t15 -38.5t-15 -38.5t-35 -11.5h-115z" />
    <glyph glyph-name="lessequal" unicode="&#x2264;" 
d="M274 438v-6l314 -136q18 -8 31 -20.5t13 -31.5q0 -23 -14.5 -38.5t-37.5 -15.5q-16 0 -34 8l-413 185q-22 10 -33.5 21t-11.5 31t11.5 31t33.5 21l413 185q18 8 34 8q23 0 37.5 -15.5t14.5 -38.5q0 -19 -13 -31.5t-31 -20.5zM576 100q32 0 44 -16t12 -34t-12 -34t-44 -16
h-435q-31 0 -42 16t-11 34t11 34t42 16h435z" />
    <glyph glyph-name="greaterequal" unicode="&#x2265;" 
d="M132 574q-18 8 -31 20.5t-13 31.5q0 23 14.5 38.5t37.5 15.5q16 0 34 -8l413 -185q22 -10 33.5 -21t11.5 -31t-11.5 -31t-33.5 -21l-413 -185q-18 -8 -34 -8q-23 0 -37.5 15.5t-14.5 38.5q0 19 13 31.5t31 20.5l314 136v6zM579 100q31 0 42 -16t11 -34t-11 -34t-42 -16
h-435q-32 0 -44 16t-12 34t12 34t44 16h435z" />
    <glyph glyph-name="pi" unicode="&#x3c0;" 
d="M192 443h-59q-20 0 -35 10.5t-15 37.5t15 37.5t35 10.5h454q20 0 35 -10.5t15 -37.5t-15 -37.5t-35 -10.5h-53v-393q0 -24 -10.5 -37t-37.5 -13t-37.5 13t-10.5 37v393h-150v-261l-55 -153q-5 -15 -17.5 -22t-26.5 -7q-12 0 -22.5 4.5t-17 12.5t-8.5 20.5t3 27.5l48 140
v238z" />
    <glyph glyph-name="f_i" unicode="&#xfb01;" 
d="M485 539q21 0 34.5 -2.5t21.5 -9.5t11.5 -20.5t3.5 -34.5v-376h28q12 0 24 -1.5t21 -7t15 -15t6 -24.5q0 -16 -6.5 -25.5t-16 -14.5t-21.5 -6.5t-22 -1.5h-152q-11 0 -22.5 1.5t-21 6.5t-16 14.5t-6.5 25.5q0 15 6 24.5t15 15t21 7t24 1.5h28v347h-200v-377
q0 -12 -1.5 -24t-7 -21.5t-15 -15t-24.5 -5.5t-24.5 5.5t-15 15t-7 21.5t-1.5 24v377h-27q-11 0 -22.5 1.5t-21 6.5t-16 14.5t-6.5 25.5q0 15 6 24.5t15 15t21 7t24 1.5h27v13q0 41 7 73t39 64q34 33 69 40.5t79 7.5h65q12 0 24.5 -1t22.5 -6t16.5 -14.5t6.5 -26.5
q0 -15 -5.5 -24.5t-15 -15t-21.5 -7t-24 -1.5h-75q-24 0 -41.5 -3t-29 -12t-16.5 -25.5t-5 -42.5v-19h225z" />
    <glyph glyph-name="f_l" unicode="&#xfb02;" 
d="M352 641q-24 0 -41.5 -3t-29 -12t-16.5 -25.5t-5 -42.5v-19h85q12 0 24 -1.5t21 -7t15 -15t6 -24.5q0 -16 -6.5 -25.5t-16 -14.5t-21.5 -6.5t-22 -1.5h-85v-377q0 -12 -1.5 -24t-7 -21.5t-15 -15t-24.5 -5.5t-24.5 5.5t-15 15t-7 21.5t-1.5 24v377h-27q-11 0 -22.5 1.5
t-21 6.5t-16 14.5t-6.5 25.5q0 15 6 24.5t15 15t21 7t24 1.5h27v13q0 41 7 73t39 64q34 33 69 40.5t79 7.5h127q21 0 34.5 -2.5t21.5 -9.5t11.5 -20.5t3.5 -34.5v-574h28q12 0 24 -1.5t21 -7t15 -15t6 -24.5q0 -16 -6.5 -25.5t-16 -14.5t-21.5 -6.5t-22 -1.5h-152
q-11 0 -22.5 1.5t-21 6.5t-16 14.5t-6.5 25.5q0 15 6 24.5t15 15t21 7t24 1.5h28v545h-108z" />
    <glyph glyph-name="uni00A0" unicode="&#xa0;" 
 />
    <glyph glyph-name="quotedbl" unicode="&#x22;" 
d="M607 728l-43 -213l-5.5 -24t-8 -19t-15.5 -12.5t-27 -4.5q-26 0 -34 18.5t-12 40.5l-34 164h-136l-34 -164q-2 -11 -4.5 -21.5t-7.5 -19t-13 -13.5t-21 -5q-17 0 -27 4.5t-15.5 12.5t-8 19l-5.5 24l-43 213v50h494v-50z" />
    <glyph glyph-name="exclam" unicode="!" 
d="M372 140q56 0 56 -57v-26q0 -57 -56 -57h-26q-56 0 -56 57v26q0 57 56 57h26zM385 778q32 0 38.5 -19t4.5 -55l-18 -343q-1 -13 -3 -24.5t-7.5 -20.5t-15.5 -14t-25 -5q-31 0 -40.5 19t-10.5 45l-18 343q-2 36 5 55t39 19h51z" />
    <glyph glyph-name="Lslash" unicode="&#x141;" 
d="M243 100h344q20 0 35 -11.5t15 -38.5t-15 -38.5t-35 -11.5h-444v276l-48 -23q-14 -6 -25 -6q-22 0 -36 15.5t-14 35.5q0 13 7 25t24 20l92 44v341q0 24 11.5 37t38.5 13t38.5 -13t11.5 -37v-292l164 80q13 6 25 6q22 0 35.5 -15.5t13.5 -35.5q0 -13 -7.5 -25t-23.5 -20
l-207 -101v-225z" />
    <glyph glyph-name="lslash" unicode="&#x142;" 
d="M314 418v223h-76q-11 0 -22.5 1.5t-21 6.5t-16 14.5t-6.5 25.5q0 15 6 24.5t15 15t21 7t24 1.5h101q21 0 34.5 -2.5t21.5 -9.5t11.5 -20.5t3.5 -34.5v-204l103 53q14 7 29 7q21 0 34.5 -13.5t13.5 -31.5q0 -12 -8 -24.5t-25 -21.5l-147 -75v-264h72q12 0 24 -1.5t21 -7
t15 -15t6 -24.5q0 -16 -6.5 -25.5t-16 -14.5t-21.5 -6.5t-22 -1.5h-244q-11 0 -22.5 1.5t-21 6.5t-16 14.5t-6.5 25.5q0 15 6 24.5t15 15t21 7t24 1.5h76v215l-100 -50q-16 -8 -28 -8q-21 0 -35 15t-14 33q0 12 7.5 23.5t23.5 19.5z" />
    <glyph glyph-name="Eth" unicode="&#xd0;" 
d="M311 341v-241h19q16 0 26 1.5t17.5 6t13.5 12.5t13 22l88 178q8 17 13.5 31.5t5.5 33.5q0 26 -7 43t-18 39l-83 169q-8 16 -14.5 24.5t-14.5 12.5t-19 4.5t-28 0.5h-12v-237h52q20 0 35 -11.5t15 -38.5t-15 -38.5t-35 -11.5h-52zM211 341h-48q-20 0 -35 11.5t-15 38.5
t15 38.5t35 11.5h48v237h-37q-25 0 -43 10.5t-18 39.5q0 27 17.5 38.5t40.5 11.5h167q59 0 92 -24.5t59 -75.5l88 -176q15 -31 22.5 -56t7.5 -60q0 -30 -7.5 -56.5t-21.5 -53.5l-91 -182q-26 -54 -62.5 -74t-95.5 -20h-166q-20 0 -35 11.5t-15 38.5t15 38.5t35 11.5h48v241z
" />
    <glyph glyph-name="onehalf" unicode="&#xbd;" 
d="M547 96h102q19 0 34 -10t15 -38q0 -27 -15 -37.5t-34 -10.5h-198v193q0 38 19.5 58t58.5 20h73v74h-102q-19 0 -34 10t-15 38q0 27 15 37.5t34 10.5h121q16 0 28 -3.5t25 -15.5q15 -13 19.5 -28t4.5 -33v-107q0 -17 -3.5 -31.5t-19.5 -28.5q-14 -12 -25.5 -15.5
t-28.5 -3.5h-74v-79zM91 337q-19 0 -34 10.5t-15 37.5q0 28 15 38t34 10h10v249h-40q-19 0 -34 10t-15 38q0 27 15 37.5t34 10.5h136v-345h9q19 0 34 -10t15 -37q0 -28 -15 -38.5t-34 -10.5h-115zM225 88q-8 -14 -19.5 -20t-22.5 -6q-19 0 -34 13.5t-15 33.5q0 14 9 29
l335 549q8 13 18 18.5t21 5.5q19 0 35 -14t16 -34q0 -12 -8 -26z" />
    <glyph glyph-name="Thorn" unicode="&#xde;" 
d="M213 284h222q22 0 36 3t22 11.5t11 22.5t3 35v76q0 21 -3 35t-11 22.5t-22 11.5t-36 3h-222v-220zM213 604h232q35 0 61.5 -7.5t53.5 -33.5q32 -30 39.5 -60.5t7.5 -70.5v-72q0 -38 -6.5 -67.5t-34.5 -60.5q-29 -33 -61 -40.5t-73 -7.5h-219v-134q0 -24 -11.5 -37
t-38.5 -13t-38.5 13t-11.5 37v678q0 24 11.5 37t38.5 13t38.5 -13t11.5 -37v-124z" />
    <glyph glyph-name="onequarter" unicode="&#xbc;" 
d="M589 237v116q0 20 10 35t38 15q29 0 38.5 -15t9.5 -35v-118q14 -5 23.5 -16t9.5 -28t-9 -28t-24 -16v-98q0 -23 -10.5 -36t-37.5 -13q-26 0 -37 13t-11 36v92h-151v251q0 19 10.5 34t38.5 15q29 0 38 -15t9 -34v-155h55zM89 337q-19 0 -34 10.5t-15 37.5q0 28 15 38
t34 10h10v249h-40q-19 0 -34 10t-15 38q0 27 15 37.5t34 10.5h136v-345h9q19 0 34 -10t15 -37q0 -28 -15 -38.5t-34 -10.5h-115zM218 88q-8 -14 -19.5 -20t-22.5 -6q-19 0 -34 13.5t-15 33.5q0 14 9 29l335 549q8 13 18 18.5t21 5.5q19 0 35 -14t16 -34q0 -12 -8 -26z" />
    <glyph glyph-name="brokenbar" unicode="&#xa6;" 
d="M310 -239v430h100v-430h-100zM310 383v430h100v-430h-100z" />
    <glyph glyph-name="thorn" unicode="&#xfe;" 
d="M499 324q0 14 -4.5 23t-15.5 19l-72 60q-7 6 -15 11.5t-18 5.5h-153v-347h153q10 0 18 5.5t15 11.5l72 60q11 10 15.5 19t4.5 23v109zM595 228q0 -26 -1.5 -44.5t-8 -34t-18.5 -30t-33 -30.5l-58 -46l-36 -27.5t-41 -15.5h-178v-138q0 -12 -1.5 -24t-7 -21.5t-15 -15
t-24.5 -5.5t-24.5 5.5t-15 15t-7 21.5t-1.5 24v804q0 13 1.5 25.5t6 22.5t14 16.5t26.5 6.5q29 0 38.5 -19.5t9.5 -43.5v-135h175q17 0 38.5 -14.5t41.5 -29.5l58 -45q21 -17 33 -31t18.5 -29.5t8 -34.5t1.5 -44v-83z" />
    <glyph glyph-name="threequarters" unicode="&#xbe;" 
d="M589 237v116q0 20 10 35t38 15q29 0 38.5 -15t9.5 -35v-118q14 -5 23.5 -16t9.5 -28t-9 -28t-24 -16v-98q0 -23 -10.5 -36t-37.5 -13q-26 0 -37 13t-11 36v92h-151v251q0 19 10.5 34t38.5 15q29 0 38 -15t9 -34v-155h55zM106 512q-20 0 -35 10.5t-15 37.5q0 26 15 37
t35 11h55v74h-99q-20 0 -35 10t-15 38q0 27 15 37.5t35 10.5h123q32 0 52 -20t20 -52v-297q0 -32 -20 -52t-52 -20h-123q-20 0 -35 10.5t-15 37.5q0 28 15 38t35 10h99v79h-55zM214 88q-8 -14 -19.5 -20t-22.5 -6q-19 0 -34 13.5t-15 33.5q0 14 9 29l335 549q8 13 18 18.5
t21 5.5q19 0 35 -14t16 -34q0 -12 -8 -26z" />
    <glyph glyph-name="minus" unicode="&#x2212;" 
d="M547 440q32 0 44 -16t12 -34t-12 -34t-44 -16h-377q-31 0 -42 16t-11 34t11 34t42 16h377z" />
    <glyph glyph-name="eth" unicode="&#xf0;" 
d="M355 405q-10 0 -18 -5.5t-15 -11.5l-37 -32q-11 -10 -15.5 -19t-4.5 -23v-129q0 -14 4.5 -23t15.5 -19l35 -30q7 -6 15 -11.5t18 -5.5h28q10 0 18 5.5t15 11.5l37 32q11 10 15.5 19t4.5 23v129q0 14 -4.5 23t-15.5 19l-44 37q-5 4 -11 7t-13 3h-28zM158 601l-63 52
q-16 14 -16 32q0 20 16 36t36 16q16 0 27 -10l79 -65l77 61q18 14 38 14t33 -13t13 -32q0 -11 -5.5 -22t-17.5 -21l-62 -49l193 -158q21 -17 33 -31t18.5 -29.5t8 -34.5t1.5 -44v-103q0 -26 -1.5 -44.5t-8 -34t-18.5 -30t-33 -30.5l-23 -18l-36 -27.5t-41 -15.5h-78
q-20 0 -41 15.5l-36 27.5l-21 16q-21 16 -33 30.5t-18.5 30t-8 34t-1.5 44.5v103q0 25 1.5 44t8 34.5t18.5 29.5t33 31l23 17l43 31l-62 50l-63 -49q-19 -14 -36 -14q-20 0 -33.5 13.5t-13.5 32.5q0 11 5.5 22t17.5 21z" />
    <glyph glyph-name="multiply" unicode="&#xd7;" 
d="M485 581q10 10 20.5 14t20.5 4q20 0 33.5 -13t13.5 -32q0 -10 -4 -20.5t-15 -21.5l-125 -124l126 -125q18 -18 18 -40q0 -20 -14.5 -33.5t-33.5 -13.5q-21 0 -39 18l-126 125l-126 -125q-18 -18 -39 -18q-19 0 -33.5 13.5t-14.5 33.5q0 22 18 40l126 125l-125 124
q-11 11 -15 21.5t-4 20.5q0 19 13.5 32t33.5 13q10 0 20.5 -4t20.5 -14l125 -125z" />
    <glyph glyph-name="Scaron" unicode="&#x160;" 
d="M360 748l132 65q8 4 13 5t12 1q18 0 30.5 -13.5t12.5 -31.5q0 -25 -24 -38l-128 -74q-25 -14 -48 -14t-48 14l-128 74q-24 13 -24 38q0 18 12.5 31.5t30.5 13.5q7 0 12 -1t13 -5zM556 209q29 -23 40 -46.5t11 -49.5q0 -28 -10 -49t-27 -35.5t-40 -21.5t-49 -7h-220
q-29 0 -53.5 6.5t-47.5 25.5q-20 17 -33.5 42t-13.5 51q0 24 13.5 42t39.5 18q22 0 34.5 -15.5t12.5 -35.5q0 -23 11.5 -28.5t32.5 -5.5h213q17 0 25 3t8 14q0 6 -5 11.5t-13 12.5l-323 258q-26 21 -37.5 45t-11.5 50q0 62 53 96q21 14 40 16t43 2h212q29 0 53 -7t46 -26
q20 -17 33.5 -43t13.5 -52q0 -24 -12.5 -41t-39.5 -17q-23 0 -35.5 13t-12.5 34q0 26 -12.5 32.5t-35.5 6.5h-208q-16 0 -25 -3t-9 -14q0 -12 15 -24z" />
    <glyph glyph-name="Yacute" unicode="&#xdd;" 
d="M446 813q6 3 11.5 4t10.5 1q20 0 35 -18t15 -39q0 -14 -4.5 -24.5t-19.5 -17.5l-202 -69q-5 -2 -9.5 -3t-9.5 -1q-16 0 -27 16t-11 36q0 11 6.5 20.5t17.5 14.5zM410 50q0 -24 -11.5 -37t-38.5 -13t-38.5 13t-11.5 37v150l-197 256v102q0 24 11.5 37t38.5 13t38.5 -13
t11.5 -37v-68l147 -191l147 191v68q0 24 11.5 37t38.5 13t38.5 -13t11.5 -37v-102l-197 -256v-150z" />
    <glyph glyph-name="Zcaron" unicode="&#x17d;" 
d="M360 748l132 65q8 4 13 5t12 1q18 0 30.5 -13.5t12.5 -31.5q0 -25 -24 -38l-128 -74q-25 -14 -48 -14t-48 14l-128 74q-24 13 -24 38q0 18 12.5 31.5t30.5 13.5q7 0 12 -1t13 -5zM607 543l-342 -443h292q20 0 35 -11.5t15 -38.5t-15 -38.5t-35 -11.5h-444v63l341 445
h-291q-20 0 -35 11.5t-15 38.5t15 38.5t35 11.5h444v-65z" />
    <glyph glyph-name="scaron" unicode="&#x161;" 
d="M474 768q15 10 28 10q19 0 32.5 -13.5t13.5 -31.5q0 -20 -19 -35l-123 -97q-20 -16 -46 -16t-46 16l-123 97q-19 15 -19 35q0 18 13.5 31.5t32.5 13.5q13 0 28 -10l114 -81zM289 443h-17t-17.5 -2t-14 -7.5t-5.5 -17.5t7.5 -17.5t18.5 -10.5l240 -109q47 -21 70.5 -52.5
t23.5 -83.5q0 -73 -44.5 -108t-113.5 -35h-148q-38 0 -65.5 4.5t-54.5 25.5q-14 11 -29 24.5t-15 31.5q0 20 15 34t35 14q21 0 37 -17q13 -14 33.5 -17.5t43.5 -3.5h130q13 0 27 0.5t26 5t19.5 15.5t7.5 32q0 17 -16.5 28.5t-33.5 19.5l-226 103q-40 18 -62 44t-22 73
q0 28 10.5 51t28.5 38.5t42 24t51 8.5h164q20 0 34.5 -1t27 -4.5t24 -10t25.5 -17.5t26 -22.5t12 -31.5t-14.5 -34t-34.5 -14q-14 0 -23 5t-18 15q-12 13 -25.5 16t-33.5 3h-146z" />
    <glyph glyph-name="yacute" unicode="&#xfd;" 
d="M468 773q8 5 20 5q11 0 21 -6t17.5 -15t11.5 -20.5t3 -22.5q-2 -22 -21 -32l-191 -94q-10 -5 -18 -5q-19 0 -31.5 16.5t-12.5 34.5q0 10 4 19t15 15zM499 418v55q0 12 1.5 24t7 21.5t15 15t24.5 5.5t24.5 -5.5t15 -15t7 -21.5t1.5 -24v-39q0 -18 -2 -31.5t-10 -29.5
l-242 -527q-8 -17 -14.5 -27t-15 -15t-19.5 -6.5t-27 -1.5h-74q-11 0 -22.5 1.5t-21 6.5t-16 14.5t-6.5 25.5q0 15 6 24.5t15 15t21 7t24 1.5h66l71 147h-5q-15 0 -23.5 3.5t-14 10t-9.5 16t-10 21.5l-118 261q-10 22 -16.5 40t-6.5 39v43q0 12 1.5 24t7 21.5t15 15
t24.5 5.5t24.5 -5.5t15 -15t7 -21.5t1.5 -24v-55l129 -283h21z" />
    <glyph glyph-name="zcaron" unicode="&#x17e;" 
d="M474 768q15 10 28 10q19 0 32.5 -13.5t13.5 -31.5q0 -20 -19 -35l-123 -97q-20 -16 -46 -16t-46 16l-123 97q-19 15 -19 35q0 18 13.5 31.5t32.5 13.5q13 0 28 -10l114 -81zM474 443h-256q-11 0 -22.5 1.5t-21 6.5t-16 14.5t-6.5 25.5q0 15 6 24.5t15 15t21 7t24 1.5h312
q37 0 51 -12t14 -38v-32q0 -14 -5.5 -26t-22.5 -28l-322 -307h284q12 0 24 -1.5t21 -7t15 -15t6 -24.5q0 -16 -6.5 -25.5t-16 -14.5t-21.5 -6.5t-22 -1.5h-333q-25 0 -39.5 5t-21.5 12.5t-8.5 17.5t-1.5 21v25q0 17 2.5 25.5t15.5 20.5z" />
    <glyph glyph-name="Euro" unicode="&#x20ac;" 
d="M470 528q31 0 45.5 -11.5t14.5 -38.5q0 -50 -60 -50h-236q-6 -23 -6 -41t7 -41h193q31 0 45.5 -11.5t14.5 -38.5q0 -50 -60 -50h-144l50 -102q7 -15 13.5 -24t14.5 -13.5t19 -5.5t28 -1h122q8 0 17 -2.5t16.5 -8.5t12 -15.5t4.5 -23.5q0 -27 -16.5 -38.5t-33.5 -11.5
h-134q-57 0 -91.5 23t-58.5 72l-75 151h-30q-60 0 -60 50q0 46 51 49q-3 13 -4 22.5t-1 18.5t1 18.5t3 23.5q-50 4 -50 50q0 50 60 50h29l77 154q26 52 61 74t93 22h129q8 0 17 -2.5t16.5 -8.5t12 -15.5t4.5 -23.5q0 -27 -16.5 -38.5t-33.5 -11.5h-126q-16 0 -26 -1
t-17.5 -5.5t-13 -13t-12.5 -22.5l-54 -108h188z" />
    <glyph glyph-name="estimated" unicode="&#x212e;" 
d="M587 515q0 12 -9 21q-42 42 -98 66.5t-120 24.5t-120.5 -25t-98.5 -69q-9 -11 -9 -22v-173q0 -6 5 -6h446q4 0 4 6v177zM137 314q-5 0 -5 -3v-176q0 -10 8 -20q42 -45 98.5 -70.5t121.5 -25.5q70 0 130 29t102 78h52q-48 -57 -122.5 -91.5t-162.5 -34.5
q-74 0 -139.5 25.5t-114.5 69.5t-77 103t-28 126t28 126t77 102.5t114.5 69t139.5 25.5q75 0 140.5 -25.5t114.5 -69t77.5 -102.5t28.5 -126v-10h-583z" />
    <glyph glyph-name="afii61289" unicode="&#x2113;" 
d="M337 404l73 87v191h-73v-278zM475 41q-17 -17 -39.5 -29t-45.5 -12h-99q-21 0 -35.5 13t-14.5 36v105q-10 -5 -21 -5q-17 0 -29.5 13.5t-12.5 33.5q0 13 6.5 25.5t29.5 39.5l27 32v420q0 31 17 48t52 17h129q31 0 49 -16.5t18 -47.5v-206q0 -29 -8.5 -49.5t-25.5 -40.5
l-131 -152v-166h51l116 121q14 14 33 14q20 0 36.5 -15t16.5 -35q0 -18 -16 -35z" />
    <glyph glyph-name="one.superior" unicode="&#xe004;" 
d="M308 337q-19 0 -34 10.5t-15 37.5q0 28 15 38t34 10h10v249h-40q-19 0 -34 10t-15 38q0 27 15 37.5t34 10.5h136v-345h9q19 0 34 -10t15 -37q0 -28 -15 -38.5t-34 -10.5h-115z" />
    <glyph glyph-name="two.superior" unicode="&#xe009;" 
d="M322 433h102q19 0 34 -10t15 -38q0 -27 -15 -37.5t-34 -10.5h-198v193q0 38 19.5 58t58.5 20h73v74h-102q-19 0 -34 10t-15 38q0 27 15 37.5t34 10.5h121q16 0 28 -3.5t25 -15.5q15 -13 19.5 -28t4.5 -33v-107q0 -17 -3.5 -31.5t-19.5 -28.5q-14 -12 -25.5 -15.5
t-28.5 -3.5h-74v-79z" />
    <glyph glyph-name="three.superior" unicode="&#xe008;" 
d="M321 512q-20 0 -35 10.5t-15 37.5q0 26 15 37t35 11h55v74h-99q-20 0 -35 10t-15 38q0 27 15 37.5t35 10.5h123q32 0 52 -20t20 -52v-297q0 -32 -20 -52t-52 -20h-123q-20 0 -35 10.5t-15 37.5q0 28 15 38t35 10h99v79h-55z" />
    <glyph glyph-name="comma.alt" unicode="&#xe000;" 
d="M273 208q-39 0 -50 17.5t-11 55.5t11 55.5t50 17.5h175q14 0 23.5 -1.5t20.5 -12.5q12 -11 14 -22.5t2 -27.5v-240q0 -29 -17.5 -39.5t-55.5 -10.5t-55.5 10.5t-17.5 39.5v158h-89z" />
    <glyph glyph-name="hyphen.alt" unicode="&#xe003;" 
d="M163 339q-20 0 -35 11.5t-15 38.5t15 38.5t35 11.5h394q20 0 35 -11.5t15 -38.5t-15 -38.5t-35 -11.5h-394z" />
    <glyph glyph-name="period.alt" unicode="&#xe005;" 
d="M419 231q17 0 29 -2.5t23 -16.5q9 -11 10.5 -21t1.5 -24v-103q0 -14 -1.5 -24t-10.5 -21q-11 -14 -23 -16.5t-29 -2.5h-118q-17 0 -29 2.5t-23 16.5q-9 11 -10.5 21t-1.5 24v103q0 14 1.5 24t10.5 21q11 14 23 16.5t29 2.5h118z" />
    <glyph glyph-name="question.alt" unicode="&#xe006;" 
d="M507 620l-49 42l-253 -217q-9 -8 -19.5 -14t-22.5 -6q-22 0 -36 15.5t-14 36.5q0 18 13.5 31l25.5 24l265 226q9 8 18 14t23 6t22 -5.5t19 -14.5l82 -70q10 -8 15 -14t7.5 -12t3 -14t0.5 -20v-55q0 -14 -1 -22t-4.5 -14t-9.5 -12t-16 -15l-265 -229v-231q0 -24 -11.5 -37
t-38.5 -13t-38.5 13t-11.5 37v244q0 13 1 20.5t4.5 13.5t9.5 11l15 13l266 231v37z" />
    <glyph glyph-name="quoteright.alt" unicode="&#xe007;" 
d="M285 667q-2 12 -4.5 28.5t-2.5 28.5q0 16 5.5 26.5t14.5 16.5t20.5 8.5t22.5 2.5h38q11 0 22.5 -2.5t20.5 -8.5t14.5 -16.5t5.5 -26.5q0 -12 -2.5 -28.5t-4.5 -28.5l-25 -153q-2 -12 -4.5 -22.5t-8 -19t-14 -13t-23.5 -4.5t-24 4.5t-14 13t-7.5 19t-4.5 22.5z" />
    <glyph glyph-name="uni2440" unicode="&#x2440;" 
d="M310 100v678h297v-304q0 -24 -11.5 -37t-38.5 -13t-38.5 13t-11.5 37v204h-97v-678h-297v304q0 24 11.5 37t38.5 13t38.5 -13t11.5 -37v-204h97z" />
    <glyph glyph-name="uni2441" unicode="&#x2441;" 
d="M213 339v-289q0 -24 -11.5 -37t-38.5 -13t-38.5 13t-11.5 37v389h394v289q0 24 11.5 37t38.5 13t38.5 -13t11.5 -37v-678q0 -24 -11.5 -37t-38.5 -13t-38.5 13t-11.5 37v289h-294z" />
    <glyph glyph-name="uni2442" unicode="&#x2442;" 
d="M113 339v389q0 24 11.5 37t38.5 13t38.5 -13t11.5 -37v-289h294v289q0 24 11.5 37t38.5 13t38.5 -13t11.5 -37v-389h-197v-289q0 -24 -11.5 -37t-38.5 -13t-38.5 13t-11.5 37v289h-197z" />
    <glyph glyph-name="erase" unicode="&#xe001;" 
d="M113 778h494v-778h-494v778z" />
    <glyph glyph-name="grouperase" unicode="&#xe002;" 
d="M1440 439v-100h-2160v100h2160z" />
    <glyph glyph-name="uni00AD" unicode="&#xad;" 
d="M477 449q31 0 45.5 -13.5t14.5 -47.5t-14.5 -47.5t-45.5 -13.5h-234q-31 0 -45.5 13.5t-14.5 47.5t14.5 47.5t45.5 13.5h234z" />
    <glyph glyph-name="uni02C9" unicode="&#x2c9;" 
d="M495 737q23 0 34 -10.5t11 -37.5q0 -26 -11 -37.5t-34 -11.5h-269q-23 0 -34.5 11.5t-11.5 37.5q0 27 11.5 37.5t34.5 10.5h269z" />
    <glyph glyph-name="uni2215" unicode="&#x2215;" 
d="M234 88q-8 -14 -19.5 -20t-22.5 -6q-19 0 -34 13.5t-15 33.5q0 14 9 29l335 549q8 13 18 18.5t21 5.5q19 0 35 -14t16 -34q0 -12 -8 -26z" />
    <glyph glyph-name="uni2219" unicode="&#x2219;" 
d="M324 296q-17 0 -29 2.5t-23 16.5q-8 11 -9.5 21t-1.5 24v56q0 14 1.5 24t9.5 21q11 14 23 16.5t29 2.5h72q17 0 29 -2.5t23 -16.5q8 -11 9.5 -21t1.5 -24v-56q0 -14 -1.5 -24t-9.5 -21q-11 -14 -23 -16.5t-29 -2.5h-72z" />
  </font>
</defs>
</svg>
